OctagonVariable-VROT-30.ufo
<glyph name="ampersand" format="2">
  <advance width="642"/>
  <unicode hex="0026"/>
  <outline>
    <contour>
      <point x="373" y="50" type="line"/>
      <point x="625" y="50" type="line"/>
      <point x="625" y="70" type="line"/>
      <point x="373" y="70" type="line"/>
    </contour>
    <contour>
      <point x="448" y="90" type="line"/>
      <point x="532" y="90" type="line"/>
      <point x="532" y="110" type="line"/>
      <point x="448" y="110" type="line"/>
    </contour>
    <contour>
      <point x="519" y="230" type="line"/>
      <point x="622" y="230" type="line"/>
      <point x="622" y="250" type="line"/>
      <point x="519" y="250" type="line"/>
    </contour>
    <contour>
      <point x="609" y="57" type="line"/>
      <point x="623" y="70" type="line"/>
      <point x="535" y="103" type="line"/>
      <point x="519" y="91" type="line"/>
    </contour>
    <contour>
      <point x="612" y="50" type="line"/>
      <point x="632" y="50" type="line"/>
      <point x="632" y="250" type="line"/>
      <point x="612" y="250" type="line"/>
    </contour>
    <contour>
      <point x="609" y="247" type="line"/>
      <point x="522" y="100" type="line"/>
      <point x="538" y="88" type="line"/>
      <point x="623" y="234" type="line"/>
    </contour>
    <contour>
      <point x="384" y="52" type="line"/>
      <point x="458" y="94" type="line"/>
      <point x="441" y="104" type="line"/>
      <point x="369" y="65" type="line"/>
    </contour>
    <contour>
      <point x="529" y="250" type="line"/>
      <point x="444" y="108" type="line"/>
      <point x="455" y="92" type="line"/>
      <point x="543" y="237" type="line"/>
    </contour>
    <contour>
      <point x="256" y="341" type="line"/>
      <point x="273" y="351" type="line"/>
      <point x="253" y="377" type="line"/>
      <point x="237" y="365" type="line"/>
    </contour>
    <contour>
      <point x="337" y="384" type="line"/>
      <point x="355" y="394" type="line"/>
      <point x="340" y="413" type="line"/>
      <point x="324" y="401" type="line"/>
    </contour>
    <contour>
      <point x="168" y="296" type="line"/>
      <point x="184" y="307" type="line"/>
      <point x="132" y="370" type="line"/>
      <point x="116" y="358" type="line"/>
    </contour>
    <contour>
      <point x="547" y="401" type="line"/>
      <point x="254" y="228" type="line"/>
      <point x="265" y="212" type="line"/>
      <point x="560" y="386" type="line"/>
    </contour>
    <contour>
      <point x="540" y="313" type="line"/>
      <point x="212" y="111" type="line"/>
      <point x="223" y="95" type="line"/>
      <point x="554" y="300" type="line"/>
    </contour>
    <contour>
      <point x="613" y="323" type="line"/>
      <point x="201" y="66" type="line"/>
      <point x="212" y="50" type="line"/>
      <point x="631" y="316" type="line"/>
    </contour>
    <contour>
      <point x="139" y="95" type="line"/>
      <point x="223" y="95" type="line"/>
      <point x="223" y="115" type="line"/>
      <point x="139" y="115" type="line"/>
    </contour>
    <contour>
      <point x="65" y="50" type="line"/>
      <point x="212" y="50" type="line"/>
      <point x="212" y="70" type="line"/>
      <point x="65" y="70" type="line"/>
    </contour>
    <contour>
      <point x="428" y="401" type="line"/>
      <point x="136" y="232" type="line"/>
      <point x="158" y="225" type="line"/>
      <point x="444" y="391" type="line"/>
    </contour>
    <contour>
      <point x="477" y="402" type="line"/>
      <point x="221" y="254" type="line"/>
      <point x="231" y="243" type="line"/>
      <point x="491" y="389" type="line"/>
    </contour>
    <contour>
      <point x="391" y="426" type="line"/>
      <point x="49" y="243" type="line"/>
      <point x="58" y="228" type="line"/>
      <point x="401" y="412" type="line"/>
    </contour>
    <contour>
      <point x="25" y="145" type="line"/>
      <point x="10" y="131" type="line"/>
      <point x="65" y="50" type="line"/>
      <point x="79" y="64" type="line"/>
    </contour>
    <contour>
      <point x="121" y="152" type="line"/>
      <point x="106" y="138" type="line"/>
      <point x="139" y="95" type="line"/>
      <point x="153" y="109" type="line"/>
    </contour>
    <contour>
      <point x="74" y="55" type="line"/>
      <point x="153" y="103" type="line"/>
      <point x="137" y="115" type="line"/>
      <point x="60" y="68" type="line"/>
    </contour>
    <contour>
      <point x="227" y="68" type="line"/>
      <point x="230" y="106" type="line"/>
      <point x="208" y="107" type="line"/>
      <point x="204" y="61" type="line"/>
    </contour>
    <contour>
      <point x="149" y="104" type="line"/>
      <point x="211" y="205" type="line"/>
      <point x="197" y="211" type="line"/>
      <point x="135" y="117" type="line"/>
    </contour>
    <contour>
      <point x="199" y="197" type="line"/>
      <point x="265" y="212" type="line"/>
      <point x="266" y="231" type="line"/>
      <point x="200" y="216" type="line"/>
    </contour>
    <contour>
      <point x="206" y="226" type="line"/>
      <point x="192" y="213" type="line"/>
      <point x="202" y="195" type="line"/>
      <point x="215" y="208" type="line"/>
    </contour>
    <contour>
      <point x="190" y="223" type="line"/>
      <point x="206" y="216" type="line"/>
      <point x="235" y="248" type="line"/>
      <point x="221" y="254" type="line"/>
    </contour>
    <contour>
      <point x="223" y="96" type="line"/>
      <point x="273" y="221" type="line"/>
      <point x="257" y="227" type="line"/>
      <point x="210" y="109" type="line"/>
    </contour>
    <contour>
      <point x="531" y="298" type="line"/>
      <point x="550" y="301" type="line"/>
      <point x="559" y="388" type="line"/>
      <point x="540" y="388" type="line"/>
    </contour>
    <contour>
      <point x="537" y="307" type="line"/>
      <point x="527" y="288" type="line"/>
      <point x="614" y="309" type="line"/>
      <point x="615" y="327" type="line"/>
    </contour>
    <contour>
      <point x="617" y="307" type="line"/>
      <point x="631" y="316" type="line"/>
      <point x="547" y="401" type="line"/>
      <point x="537" y="389" type="line"/>
    </contour>
    <contour>
      <point x="10" y="131" type="line"/>
      <point x="30" y="131" type="line"/>
      <point x="30" y="186" type="line"/>
      <point x="10" y="186" type="line"/>
    </contour>
    <contour>
      <point x="28" y="178" type="line"/>
      <point x="67" y="236" type="line"/>
      <point x="49" y="243" type="line"/>
      <point x="10" y="186" type="line"/>
    </contour>
    <contour>
      <point x="245" y="211" type="line"/>
      <point x="261" y="222" type="line"/>
      <point x="234" y="260" type="line"/>
      <point x="218" y="248" type="line"/>
    </contour>
    <contour>
      <point x="400" y="184" type="line"/>
      <point x="384" y="173" type="line"/>
      <point x="448" y="93" type="line"/>
      <point x="462" y="106" type="line"/>
    </contour>
    <contour>
      <point x="326" y="136" type="line"/>
      <point x="311" y="124" type="line"/>
      <point x="373" y="50" type="line"/>
      <point x="387" y="63" type="line"/>
    </contour>
    <contour>
      <point x="518" y="259" type="line"/>
      <point x="503" y="247" type="line"/>
      <point x="523" y="228" type="line"/>
      <point x="537" y="241" type="line"/>
    </contour>
    <contour>
      <point x="310" y="302" type="line"/>
      <point x="293" y="290" type="line"/>
      <point x="324" y="254" type="line"/>
      <point x="341" y="265" type="line"/>
    </contour>
    <contour>
      <point x="421" y="361" type="line"/>
      <point x="405" y="350" type="line"/>
      <point x="432" y="322" type="line"/>
      <point x="447" y="334" type="line"/>
    </contour>
    <contour>
      <point x="247" y="382" type="line"/>
      <point x="228" y="380" type="line"/>
      <point x="237" y="365" type="line"/>
      <point x="256" y="369" type="line"/>
    </contour>
    <contour>
      <point x="123" y="137" type="line"/>
      <point x="156" y="229" type="line"/>
      <point x="136" y="232" type="line"/>
      <point x="105" y="142" type="line"/>
    </contour>
    <contour>
      <point x="16" y="147" type="line"/>
      <point x="121" y="131" type="line"/>
      <point x="121" y="152" type="line"/>
      <point x="16" y="167" type="line"/>
    </contour>
    <contour>
      <point x="49" y="234" type="line"/>
      <point x="141" y="216" type="line"/>
      <point x="153" y="235" type="line"/>
      <point x="67" y="248" type="line"/>
    </contour>
    <contour>
      <point x="335" y="418" type="line"/>
      <point x="243" y="380" type="line"/>
      <point x="252" y="364" type="line"/>
      <point x="341" y="402" type="line"/>
    </contour>
    <contour>
      <point x="116" y="358" type="line"/>
      <point x="136" y="358" type="line"/>
      <point x="136" y="444" type="line"/>
      <point x="116" y="447" type="line"/>
    </contour>
    <contour>
      <point x="471" y="389" type="line"/>
      <point x="491" y="389" type="line"/>
      <point x="491" y="469" type="line"/>
      <point x="471" y="469" type="line"/>
    </contour>
    <contour>
      <point x="325" y="400" type="line"/>
      <point x="345" y="400" type="line"/>
      <point x="345" y="416" type="line"/>
      <point x="325" y="412" type="line"/>
    </contour>
    <contour>
      <point x="382" y="412" type="line"/>
      <point x="401" y="412" type="line"/>
      <point x="401" y="427" type="line"/>
      <point x="383" y="426" type="line"/>
    </contour>
    <contour>
      <point x="430" y="409" type="line"/>
      <point x="423" y="391" type="line"/>
      <point x="481" y="389" type="line"/>
      <point x="486" y="407" type="line"/>
    </contour>
    <contour>
      <point x="422" y="396" type="line"/>
      <point x="441" y="394" type="line"/>
      <point x="441" y="424" type="line"/>
      <point x="422" y="424" type="line"/>
    </contour>
    <contour>
      <point x="194" y="231" type="line"/>
      <point x="114" y="147" type="line"/>
      <point x="123" y="130" type="line"/>
      <point x="205" y="214" type="line"/>
    </contour>
    <contour>
      <point x="143" y="216" type="line"/>
      <point x="200" y="215" type="line"/>
      <point x="211" y="235" type="line"/>
      <point x="149" y="235" type="line"/>
    </contour>
    <contour>
      <point x="228" y="380" type="line"/>
      <point x="244" y="371" type="line"/>
      <point x="315" y="444" type="line"/>
      <point x="303" y="458" type="line"/>
    </contour>
    <contour>
      <point x="128" y="353" type="line"/>
      <point x="252" y="360" type="line"/>
      <point x="249" y="378" type="line"/>
      <point x="126" y="373" type="line"/>
    </contour>
    <contour>
      <point x="123" y="437" type="line"/>
      <point x="240" y="371" type="line"/>
      <point x="246" y="388" type="line"/>
      <point x="129" y="454" type="line"/>
    </contour>
    <contour>
      <point x="116" y="447" type="line"/>
      <point x="134" y="438" type="line"/>
      <point x="237" y="536" type="line"/>
      <point x="222" y="550" type="line"/>
    </contour>
    <contour>
      <point x="303" y="441" type="line"/>
      <point x="389" y="441" type="line"/>
      <point x="400" y="461" type="line"/>
      <point x="304" y="461" type="line"/>
    </contour>
    <contour>
      <point x="223" y="530" type="line"/>
      <point x="408" y="530" type="line"/>
      <point x="406" y="550" type="line"/>
      <point x="222" y="550" type="line"/>
    </contour>
    <contour>
      <point x="379" y="429" type="line"/>
      <point x="392" y="419" type="line"/>
      <point x="404" y="442" type="line"/>
      <point x="387" y="446" type="line"/>
    </contour>
    <contour>
      <point x="491" y="469" type="line"/>
      <point x="406" y="550" type="line"/>
      <point x="394" y="536" type="line"/>
      <point x="473" y="460" type="line"/>
    </contour>
    <contour>
      <point x="441" y="424" type="line"/>
      <point x="399" y="458" type="line"/>
      <point x="387" y="444" type="line"/>
      <point x="426" y="412" type="line"/>
    </contour>
    <contour>
      <point x="401" y="427" type="line"/>
      <point x="391" y="431" type="line"/>
      <point x="376" y="423" type="line"/>
      <point x="389" y="416" type="line"/>
    </contour>
    <contour>
      <point x="325" y="412" type="line"/>
      <point x="342" y="405" type="line"/>
      <point x="361" y="423" type="line"/>
      <point x="345" y="431" type="line"/>
    </contour>
    <contour>
      <point x="344" y="415" type="line"/>
      <point x="391" y="415" type="line"/>
      <point x="391" y="431" type="line"/>
      <point x="345" y="431" type="line"/>
    </contour>
    <contour>
      <point x="219" y="536" type="line"/>
      <point x="305" y="439" type="line"/>
      <point x="320" y="449" type="line"/>
      <point x="234" y="546" type="line"/>
    </contour>
    <contour>
      <point x="412" y="538" type="line"/>
      <point x="400" y="548" type="line"/>
      <point x="389" y="453" type="line"/>
      <point x="404" y="443" type="line"/>
    </contour>
  </outline>
</glyph>
<glyph name="quotesingle" format="2">
  <advance width="132"/>
  <unicode hex="0027"/>
  <outline>
    <contour>
      <point x="30" y="337" type="line"/>
      <point x="102" y="337" type="line"/>
      <point x="102" y="350" type="line"/>
      <point x="30" y="350" type="line"/>
    </contour>
    <contour>
      <point x="41" y="337" type="line"/>
      <point x="68" y="382" type="line"/>
      <point x="59" y="394" type="line"/>
      <point x="30" y="344" type="line"/>
    </contour>
    <contour>
      <point x="90" y="337" type="line"/>
      <point x="102" y="344" type="line"/>
      <point x="72" y="395" type="line"/>
      <point x="63" y="383" type="line"/>
    </contour>
    <contour>
      <point x="30" y="337" type="line"/>
      <point x="44" y="337" type="line"/>
      <point x="44" y="549" type="line"/>
      <point x="30" y="549" type="line"/>
    </contour>
    <contour>
      <point x="59" y="386" type="line"/>
      <point x="73" y="386" type="line"/>
      <point x="73" y="399" type="line"/>
      <point x="59" y="399" type="line"/>
    </contour>
    <contour>
      <point x="88" y="337" type="line"/>
      <point x="102" y="337" type="line"/>
      <point x="102" y="549" type="line"/>
      <point x="88" y="549" type="line"/>
    </contour>
    <contour>
      <point x="59" y="387" type="line"/>
      <point x="70" y="399" type="line"/>
      <point x="41" y="549" type="line"/>
      <point x="30" y="537" type="line"/>
    </contour>
    <contour>
      <point x="32" y="535" type="line"/>
      <point x="102" y="535" type="line"/>
      <point x="102" y="549" type="line"/>
      <point x="32" y="549" type="line"/>
    </contour>
    <contour>
      <point x="73" y="387" type="line"/>
      <point x="101" y="537" type="line"/>
      <point x="90" y="549" type="line"/>
      <point x="63" y="399" type="line"/>
    </contour>
  </outline>
</glyph>
<glyph name="hyphen" format="2">
  <advance width="261"/>
  <unicode hex="002D"/>
  <outline>
    <contour>
      <point x="15" y="224" type="line"/>
      <point x="240" y="224" type="line"/>
      <point x="240" y="242" type="line"/>
      <point x="15" y="242" type="line"/>
    </contour>
    <contour>
      <point x="29" y="224" type="line"/>
      <point x="107" y="260" type="line"/>
      <point x="91" y="273" type="line"/>
      <point x="15" y="238" type="line"/>
    </contour>
    <contour>
      <point x="232" y="224" type="line"/>
      <point x="246" y="238" type="line"/>
      <point x="169" y="274" type="line"/>
      <point x="154" y="260" type="line"/>
    </contour>
    <contour>
      <point x="15" y="224" type="line"/>
      <point x="35" y="224" type="line"/>
      <point x="35" y="389" type="line"/>
      <point x="15" y="389" type="line"/>
    </contour>
    <contour>
      <point x="91" y="256" type="line"/>
      <point x="174" y="256" type="line"/>
      <point x="174" y="279" type="line"/>
      <point x="91" y="279" type="line"/>
    </contour>
    <contour>
      <point x="226" y="224" type="line"/>
      <point x="246" y="224" type="line"/>
      <point x="246" y="389" type="line"/>
      <point x="226" y="389" type="line"/>
    </contour>
    <contour>
      <point x="92" y="260" type="line"/>
      <point x="107" y="274" type="line"/>
      <point x="29" y="389" type="line"/>
      <point x="15" y="375" type="line"/>
    </contour>
    <contour>
      <point x="18" y="371" type="line"/>
      <point x="240" y="371" type="line"/>
      <point x="240" y="389" type="line"/>
      <point x="18" y="389" type="line"/>
    </contour>
    <contour>
      <point x="169" y="260" type="line"/>
      <point x="245" y="375" type="line"/>
      <point x="231" y="389" type="line"/>
      <point x="154" y="274" type="line"/>
    </contour>
  </outline>
</glyph>
<glyph name="slash" format="2">
  <advance width="352"/>
  <unicode hex="002F"/>
  <outline>
    <contour>
      <point x="18" y="10" type="line"/>
      <point x="271" y="590" type="line"/>
      <point x="254" y="590" type="line"/>
      <point x="0" y="10" type="line"/>
    </contour>
    <contour>
      <point x="99" y="10" type="line"/>
      <point x="352" y="590" type="line"/>
      <point x="334" y="590" type="line"/>
      <point x="81" y="10" type="line"/>
    </contour>
    <contour>
      <point x="263" y="504" type="line"/>
      <point x="275" y="519" type="line"/>
      <point x="265" y="590" type="line"/>
      <point x="251" y="575" type="line"/>
    </contour>
    <contour>
      <point x="268" y="503" type="line"/>
      <point x="345" y="574" type="line"/>
      <point x="339" y="590" type="line"/>
      <point x="262" y="518" type="line"/>
    </contour>
    <contour>
      <point x="254" y="570" type="line"/>
      <point x="335" y="570" type="line"/>
      <point x="345" y="590" type="line"/>
      <point x="254" y="590" type="line"/>
    </contour>
    <contour>
      <point x="65" y="54" type="line"/>
      <point x="53" y="39" type="line"/>
      <point x="87" y="10" type="line"/>
      <point x="101" y="25" type="line"/>
    </contour>
    <contour>
      <point x="60" y="55" type="line"/>
      <point x="7" y="26" type="line"/>
      <point x="13" y="10" type="line"/>
      <point x="67" y="40" type="line"/>
    </contour>
    <contour>
      <point x="99" y="30" type="line"/>
      <point x="8" y="30" type="line"/>
      <point x="8" y="10" type="line"/>
      <point x="99" y="10" type="line"/>
    </contour>
    <contour>
      <point x="66" y="33" type="line"/>
      <point x="279" y="521" type="line"/>
      <point x="264" y="527" type="line"/>
      <point x="52" y="44" type="line"/>
    </contour>
  </outline>
</glyph>
<glyph name="zero" format="2">
  <advance width="480"/>
  <unicode hex="0030"/>
  <outline>
    <contour>
      <point x="456" y="396" type="line"/>
      <point x="470" y="410" type="line"/>
      <point x="340" y="550" type="line"/>
      <point x="326" y="536" type="line"/>
    </contour>
    <contour>
      <point x="140" y="50" type="line"/>
      <point x="154" y="64" type="line"/>
      <point x="24" y="203" type="line"/>
      <point x="10" y="189" type="line"/>
    </contour>
    <contour>
      <point x="150" y="57" type="line"/>
      <point x="195" y="88" type="line"/>
      <point x="175" y="94" type="line"/>
      <point x="139" y="69" type="line"/>
    </contour>
    <contour>
      <point x="26" y="184" type="line"/>
      <point x="125" y="146" type="line"/>
      <point x="119" y="168" type="line"/>
      <point x="20" y="206" type="line"/>
    </contour>
    <contour>
      <point x="140" y="50" type="line"/>
      <point x="340" y="50" type="line"/>
      <point x="340" y="68" type="line"/>
      <point x="140" y="68" type="line"/>
    </contour>
    <contour>
      <point x="175" y="81" type="line"/>
      <point x="189" y="95" type="line"/>
      <point x="124" y="168" type="line"/>
      <point x="110" y="154" type="line"/>
    </contour>
    <contour>
      <point x="186" y="87" type="line"/>
      <point x="228" y="192" type="line"/>
      <point x="212" y="203" type="line"/>
      <point x="170" y="97" type="line"/>
    </contour>
    <contour>
      <point x="175" y="79" type="line"/>
      <point x="305" y="79" type="line"/>
      <point x="305" y="97" type="line"/>
      <point x="175" y="97" type="line"/>
    </contour>
    <contour>
      <point x="10" y="189" type="line"/>
      <point x="30" y="189" type="line"/>
      <point x="30" y="410" type="line"/>
      <point x="10" y="410" type="line"/>
    </contour>
    <contour>
      <point x="127" y="150" type="line"/>
      <point x="216" y="224" type="line"/>
      <point x="210" y="242" type="line"/>
      <point x="121" y="168" type="line"/>
    </contour>
    <contour>
      <point x="330" y="57" type="line"/>
      <point x="341" y="69" type="line"/>
      <point x="306" y="93" type="line"/>
      <point x="286" y="87" type="line"/>
    </contour>
    <contour>
      <point x="212" y="189" type="line"/>
      <point x="229" y="201" type="line"/>
      <point x="218" y="234" type="line"/>
      <point x="200" y="226" type="line"/>
    </contour>
    <contour>
      <point x="212" y="189" type="line"/>
      <point x="268" y="189" type="line"/>
      <point x="268" y="207" type="line"/>
      <point x="212" y="207" type="line"/>
    </contour>
    <contour>
      <point x="294" y="87" type="line"/>
      <point x="310" y="97" type="line"/>
      <point x="268" y="203" type="line"/>
      <point x="252" y="192" type="line"/>
    </contour>
    <contour>
      <point x="110" y="155" type="line"/>
      <point x="130" y="155" type="line"/>
      <point x="130" y="335" type="line"/>
      <point x="110" y="335" type="line"/>
    </contour>
    <contour>
      <point x="268" y="189" type="line"/>
      <point x="280" y="226" type="line"/>
      <point x="262" y="234" type="line"/>
      <point x="251" y="201" type="line"/>
    </contour>
    <contour>
      <point x="305" y="81" type="line"/>
      <point x="370" y="154" type="line"/>
      <point x="356" y="168" type="line"/>
      <point x="291" y="95" type="line"/>
    </contour>
    <contour>
      <point x="340" y="50" type="line"/>
      <point x="470" y="189" type="line"/>
      <point x="456" y="203" type="line"/>
      <point x="326" y="64" type="line"/>
    </contour>
    <contour>
      <point x="353" y="150" type="line"/>
      <point x="359" y="168" type="line"/>
      <point x="270" y="242" type="line"/>
      <point x="264" y="224" type="line"/>
    </contour>
    <contour>
      <point x="200" y="226" type="line"/>
      <point x="220" y="226" type="line"/>
      <point x="220" y="363" type="line"/>
      <point x="200" y="363" type="line"/>
    </contour>
    <contour>
      <point x="119" y="315" type="line"/>
      <point x="125" y="335" type="line"/>
      <point x="26" y="413" type="line"/>
      <point x="20" y="393" type="line"/>
    </contour>
    <contour>
      <point x="454" y="186" type="line"/>
      <point x="460" y="204" type="line"/>
      <point x="361" y="166" type="line"/>
      <point x="355" y="148" type="line"/>
    </contour>
    <contour>
      <point x="260" y="226" type="line"/>
      <point x="280" y="226" type="line"/>
      <point x="280" y="363" type="line"/>
      <point x="260" y="363" type="line"/>
    </contour>
    <contour>
      <point x="210" y="351" type="line"/>
      <point x="216" y="374" type="line"/>
      <point x="127" y="344" type="line"/>
      <point x="121" y="321" type="line"/>
    </contour>
    <contour>
      <point x="24" y="396" type="line"/>
      <point x="154" y="536" type="line"/>
      <point x="140" y="550" type="line"/>
      <point x="10" y="410" type="line"/>
    </contour>
    <contour>
      <point x="124" y="321" type="line"/>
      <point x="189" y="404" type="line"/>
      <point x="175" y="418" type="line"/>
      <point x="110" y="335" type="line"/>
    </contour>
    <contour>
      <point x="218" y="355" type="line"/>
      <point x="229" y="382" type="line"/>
      <point x="212" y="394" type="line"/>
      <point x="200" y="363" type="line"/>
    </contour>
    <contour>
      <point x="350" y="155" type="line"/>
      <point x="370" y="155" type="line"/>
      <point x="370" y="335" type="line"/>
      <point x="350" y="335" type="line"/>
    </contour>
    <contour>
      <point x="212" y="378" type="line"/>
      <point x="230" y="390" type="line"/>
      <point x="186" y="412" type="line"/>
      <point x="170" y="402" type="line"/>
    </contour>
    <contour>
      <point x="212" y="376" type="line"/>
      <point x="268" y="376" type="line"/>
      <point x="268" y="394" type="line"/>
      <point x="212" y="394" type="line"/>
    </contour>
    <contour>
      <point x="262" y="355" type="line"/>
      <point x="280" y="363" type="line"/>
      <point x="268" y="394" type="line"/>
      <point x="251" y="382" type="line"/>
    </contour>
    <contour>
      <point x="171" y="401" type="line"/>
      <point x="188" y="407" type="line"/>
      <point x="156" y="536" type="line"/>
      <point x="139" y="530" type="line"/>
    </contour>
    <contour>
      <point x="270" y="351" type="line"/>
      <point x="359" y="321" type="line"/>
      <point x="353" y="344" type="line"/>
      <point x="264" y="374" type="line"/>
    </contour>
    <contour>
      <point x="175" y="400" type="line"/>
      <point x="305" y="400" type="line"/>
      <point x="305" y="418" type="line"/>
      <point x="175" y="418" type="line"/>
    </contour>
    <contour>
      <point x="450" y="189" type="line"/>
      <point x="470" y="189" type="line"/>
      <point x="470" y="410" type="line"/>
      <point x="450" y="410" type="line"/>
    </contour>
    <contour>
      <point x="268" y="379" type="line"/>
      <point x="310" y="402" type="line"/>
      <point x="294" y="412" type="line"/>
      <point x="252" y="390" type="line"/>
    </contour>
    <contour>
      <point x="356" y="321" type="line"/>
      <point x="370" y="335" type="line"/>
      <point x="305" y="418" type="line"/>
      <point x="291" y="404" type="line"/>
    </contour>
    <contour>
      <point x="140" y="532" type="line"/>
      <point x="340" y="532" type="line"/>
      <point x="340" y="550" type="line"/>
      <point x="140" y="550" type="line"/>
    </contour>
    <contour>
      <point x="361" y="323" type="line"/>
      <point x="460" y="395" type="line"/>
      <point x="454" y="413" type="line"/>
      <point x="355" y="341" type="line"/>
    </contour>
    <contour>
      <point x="309" y="401" type="line"/>
      <point x="341" y="530" type="line"/>
      <point x="324" y="536" type="line"/>
      <point x="292" y="407" type="line"/>
    </contour>
  </outline>
</glyph>
<glyph name="one" format="2">
  <advance width="380"/>
  <unicode hex="0031"/>
  <outline>
    <contour>
      <point x="170" y="50" type="line"/>
      <point x="370" y="50" type="line"/>
      <point x="370" y="70" type="line"/>
      <point x="170" y="70" type="line"/>
    </contour>
    <contour>
      <point x="183" y="50" type="line"/>
      <point x="275" y="92" type="line"/>
      <point x="262" y="105" type="line"/>
      <point x="170" y="63" type="line"/>
    </contour>
    <contour>
      <point x="357" y="50" type="line"/>
      <point x="370" y="63" type="line"/>
      <point x="278" y="105" type="line"/>
      <point x="265" y="92" type="line"/>
    </contour>
    <contour>
      <point x="170" y="53" type="line"/>
      <point x="190" y="53" type="line"/>
      <point x="190" y="312" type="line"/>
      <point x="170" y="312" type="line"/>
    </contour>
    <contour>
      <point x="260" y="90" type="line"/>
      <point x="280" y="90" type="line"/>
      <point x="280" y="426" type="line"/>
      <point x="260" y="426" type="line"/>
    </contour>
    <contour>
      <point x="350" y="50" type="line"/>
      <point x="370" y="50" type="line"/>
      <point x="370" y="550" type="line"/>
      <point x="350" y="550" type="line"/>
    </contour>
    <contour>
      <point x="262" y="411" type="line"/>
      <point x="275" y="424" type="line"/>
      <point x="183" y="550" type="line"/>
      <point x="170" y="537" type="line"/>
    </contour>
    <contour>
      <point x="174" y="530" type="line"/>
      <point x="370" y="530" type="line"/>
      <point x="370" y="550" type="line"/>
      <point x="174" y="550" type="line"/>
    </contour>
    <contour>
      <point x="277" y="411" type="line"/>
      <point x="369" y="537" type="line"/>
      <point x="356" y="550" type="line"/>
      <point x="264" y="424" type="line"/>
    </contour>
    <contour>
      <point x="212" y="487" type="line"/>
      <point x="116" y="347" type="line"/>
      <point x="139" y="347" type="line"/>
      <point x="225" y="469" type="line"/>
    </contour>
    <contour>
      <point x="261" y="424" type="line"/>
      <point x="167" y="302" type="line"/>
      <point x="186" y="296" type="line"/>
      <point x="276" y="412" type="line"/>
    </contour>
    <contour>
      <point x="174" y="550" type="line"/>
      <point x="5" y="296" type="line"/>
      <point x="30" y="296" type="line"/>
      <point x="194" y="545" type="line"/>
    </contour>
    <contour>
      <point x="134" y="358" type="line"/>
      <point x="120" y="344" type="line"/>
      <point x="176" y="303" type="line"/>
      <point x="188" y="316" type="line"/>
    </contour>
    <contour>
      <point x="129" y="361" type="line"/>
      <point x="25" y="315" type="line"/>
      <point x="36" y="300" type="line"/>
      <point x="140" y="345" type="line"/>
    </contour>
    <contour>
      <point x="186" y="316" type="line"/>
      <point x="22" y="316" type="line"/>
      <point x="22" y="296" type="line"/>
      <point x="186" y="296" type="line"/>
    </contour>
  </outline>
</glyph>
<glyph name="three" format="2">
  <advance width="498"/>
  <unicode hex="0033"/>
  <outline>
    <contour>
      <point x="488" y="271" type="line"/>
      <point x="465" y="271" type="line"/>
      <point x="465" y="164" type="line"/>
      <point x="488" y="164" type="line"/>
    </contour>
    <contour>
      <point x="381" y="237" type="line"/>
      <point x="363" y="237" type="line"/>
      <point x="363" y="154" type="line"/>
      <point x="381" y="154" type="line"/>
    </contour>
    <contour>
      <point x="275" y="235" type="line"/>
      <point x="269" y="218" type="line"/>
      <point x="368" y="151" type="line"/>
      <point x="372" y="169" type="line"/>
    </contour>
    <contour>
      <point x="477" y="180" type="line"/>
      <point x="330" y="65" type="line"/>
      <point x="342" y="49" type="line"/>
      <point x="488" y="164" type="line"/>
    </contour>
    <contour>
      <point x="372" y="169" type="line"/>
      <point x="280" y="100" type="line"/>
      <point x="292" y="85" type="line"/>
      <point x="384" y="154" type="line"/>
    </contour>
    <contour>
      <point x="269" y="237" type="line"/>
      <point x="242" y="217" type="line"/>
      <point x="252" y="202" type="line"/>
      <point x="280" y="222" type="line"/>
    </contour>
    <contour>
      <point x="252" y="223" type="line"/>
      <point x="215" y="223" type="line"/>
      <point x="215" y="202" type="line"/>
      <point x="252" y="202" type="line"/>
    </contour>
    <contour>
      <point x="204" y="243" type="line"/>
      <point x="184" y="243" type="line"/>
      <point x="184" y="225" type="line"/>
      <point x="204" y="225" type="line"/>
    </contour>
    <contour>
      <point x="193" y="240" type="line"/>
      <point x="182" y="225" type="line"/>
      <point x="216" y="203" type="line"/>
      <point x="227" y="219" type="line"/>
    </contour>
    <contour>
      <point x="229" y="208" type="line"/>
      <point x="212" y="216" type="line"/>
      <point x="177" y="101" type="line"/>
      <point x="194" y="94" type="line"/>
    </contour>
    <contour>
      <point x="290" y="105" type="line"/>
      <point x="180" y="105" type="line"/>
      <point x="180" y="85" type="line"/>
      <point x="292" y="85" type="line"/>
    </contour>
    <contour>
      <point x="204" y="258" type="line"/>
      <point x="10" y="258" type="line"/>
      <point x="10" y="238" type="line"/>
      <point x="204" y="238" type="line"/>
    </contour>
    <contour>
      <point x="107" y="177" type="line"/>
      <point x="96" y="162" type="line"/>
      <point x="180" y="85" type="line"/>
      <point x="192" y="101" type="line"/>
    </contour>
    <contour>
      <point x="342" y="69" type="line"/>
      <point x="152" y="69" type="line"/>
      <point x="149" y="49" type="line"/>
      <point x="342" y="49" type="line"/>
    </contour>
    <contour>
      <point x="113" y="157" type="line"/>
      <point x="106" y="177" type="line"/>
      <point x="17" y="192" type="line"/>
      <point x="18" y="173" type="line"/>
    </contour>
    <contour>
      <point x="175" y="99" type="line"/>
      <point x="143" y="60" type="line"/>
      <point x="161" y="54" type="line"/>
      <point x="194" y="93" type="line"/>
    </contour>
    <contour>
      <point x="30" y="238" type="line"/>
      <point x="10" y="238" type="line"/>
      <point x="10" y="173" type="line"/>
      <point x="30" y="176" type="line"/>
    </contour>
    <contour>
      <point x="20" y="191" type="line"/>
      <point x="10" y="173" type="line"/>
      <point x="149" y="49" type="line"/>
      <point x="162" y="64" type="line"/>
    </contour>
    <contour>
      <point x="97" y="176" type="line"/>
      <point x="105" y="160" type="line"/>
      <point x="197" y="223" type="line"/>
      <point x="190" y="239" type="line"/>
    </contour>
    <contour>
      <point x="373" y="169" type="line"/>
      <point x="370" y="149" type="line"/>
      <point x="474" y="159" type="line"/>
      <point x="478" y="179" type="line"/>
    </contour>
    <contour>
      <point x="254" y="220" type="line"/>
      <point x="236" y="214" type="line"/>
      <point x="284" y="90" type="line"/>
      <point x="301" y="96" type="line"/>
    </contour>
    <contour>
      <point x="294" y="99" type="line"/>
      <point x="275" y="92" type="line"/>
      <point x="330" y="57" type="line"/>
      <point x="348" y="66" type="line"/>
    </contour>
    <contour>
      <point x="271" y="258" type="line"/>
      <point x="370" y="221" type="line"/>
      <point x="370" y="241" type="line"/>
      <point x="271" y="278" type="line"/>
    </contour>
    <contour>
      <point x="365" y="227" type="line"/>
      <point x="381" y="237" type="line"/>
      <point x="325" y="285" type="line"/>
      <point x="308" y="276" type="line"/>
    </contour>
    <contour>
      <point x="321" y="292" type="line"/>
      <point x="211" y="292" type="line"/>
      <point x="211" y="272" type="line"/>
      <point x="321" y="272" type="line"/>
    </contour>
    <contour>
      <point x="468" y="361" type="line"/>
      <point x="468" y="465" type="line"/>
      <point x="448" y="465" type="line"/>
      <point x="448" y="361" type="line"/>
    </contour>
    <contour>
      <point x="362" y="348" type="line"/>
      <point x="362" y="415" type="line"/>
      <point x="342" y="415" type="line"/>
      <point x="342" y="348" type="line"/>
    </contour>
    <contour>
      <point x="356" y="346" type="line"/>
      <point x="348" y="362" type="line"/>
      <point x="265" y="356" type="line"/>
      <point x="273" y="340" type="line"/>
    </contour>
    <contour>
      <point x="269" y="381" type="line"/>
      <point x="355" y="402" type="line"/>
      <point x="347" y="419" type="line"/>
      <point x="262" y="398" type="line"/>
    </contour>
    <contour>
      <point x="457" y="449" type="line"/>
      <point x="468" y="465" type="line"/>
      <point x="342" y="550" type="line"/>
      <point x="330" y="534" type="line"/>
    </contour>
    <contour>
      <point x="280" y="351" type="line"/>
      <point x="280" y="398" type="line"/>
      <point x="260" y="398" type="line"/>
      <point x="260" y="351" type="line"/>
    </contour>
    <contour>
      <point x="350" y="400" type="line"/>
      <point x="362" y="415" type="line"/>
      <point x="292" y="444" type="line"/>
      <point x="278" y="428" type="line"/>
    </contour>
    <contour>
      <point x="269" y="381" type="line"/>
      <point x="280" y="398" type="line"/>
      <point x="242" y="417" type="line"/>
      <point x="233" y="400" type="line"/>
    </contour>
    <contour>
      <point x="242" y="396" type="line"/>
      <point x="242" y="417" type="line"/>
      <point x="225" y="417" type="line"/>
      <point x="225" y="396" type="line"/>
    </contour>
    <contour>
      <point x="194" y="376" type="line"/>
      <point x="194" y="394" type="line"/>
      <point x="174" y="394" type="line"/>
      <point x="174" y="376" type="line"/>
    </contour>
    <contour>
      <point x="185" y="378" type="line"/>
      <point x="233" y="399" type="line"/>
      <point x="225" y="417" type="line"/>
      <point x="174" y="394" type="line"/>
    </contour>
    <contour>
      <point x="240" y="412" type="line"/>
      <point x="195" y="436" type="line"/>
      <point x="178" y="427" type="line"/>
      <point x="223" y="403" type="line"/>
    </contour>
    <contour>
      <point x="290" y="424" type="line"/>
      <point x="292" y="444" type="line"/>
      <point x="180" y="444" type="line"/>
      <point x="180" y="424" type="line"/>
    </contour>
    <contour>
      <point x="194" y="361" type="line"/>
      <point x="194" y="381" type="line"/>
      <point x="20" y="381" type="line"/>
      <point x="20" y="361" type="line"/>
    </contour>
    <contour>
      <point x="116" y="385" type="line"/>
      <point x="194" y="427" type="line"/>
      <point x="180" y="443" type="line"/>
      <point x="104" y="398" type="line"/>
    </contour>
    <contour>
      <point x="342" y="530" type="line"/>
      <point x="342" y="550" type="line"/>
      <point x="129" y="550" type="line"/>
      <point x="132" y="530" type="line"/>
    </contour>
    <contour>
      <point x="114" y="400" type="line"/>
      <point x="37" y="453" type="line"/>
      <point x="29" y="435" type="line"/>
      <point x="107" y="381" type="line"/>
    </contour>
    <contour>
      <point x="180" y="427" type="line"/>
      <point x="199" y="431" type="line"/>
      <point x="141" y="545" type="line"/>
      <point x="123" y="539" type="line"/>
    </contour>
    <contour>
      <point x="40" y="381" type="line"/>
      <point x="40" y="443" type="line"/>
      <point x="20" y="446" type="line"/>
      <point x="20" y="381" type="line"/>
    </contour>
    <contour>
      <point x="30" y="428" type="line"/>
      <point x="142" y="535" type="line"/>
      <point x="129" y="550" type="line"/>
      <point x="20" y="446" type="line"/>
    </contour>
    <contour>
      <point x="107" y="381" type="line"/>
      <point x="180" y="380" type="line"/>
      <point x="187" y="396" type="line"/>
      <point x="105" y="401" type="line"/>
    </contour>
    <contour>
      <point x="351" y="401" type="line"/>
      <point x="462" y="449" type="line"/>
      <point x="458" y="467" type="line"/>
      <point x="348" y="419" type="line"/>
    </contour>
    <contour>
      <point x="247" y="404" type="line"/>
      <point x="298" y="431" type="line"/>
      <point x="282" y="441" type="line"/>
      <point x="232" y="414" type="line"/>
    </contour>
    <contour>
      <point x="290" y="426" type="line"/>
      <point x="348" y="533" type="line"/>
      <point x="334" y="543" type="line"/>
      <point x="275" y="435" type="line"/>
    </contour>
    <contour>
      <point x="166" y="352" type="line"/>
      <point x="154" y="336" type="line"/>
      <point x="214" y="274" type="line"/>
      <point x="229" y="290" type="line"/>
    </contour>
    <contour>
      <point x="219" y="292" type="line"/>
      <point x="151" y="274" type="line"/>
      <point x="166" y="258" type="line"/>
      <point x="234" y="278" type="line"/>
    </contour>
    <contour>
      <point x="473" y="253" type="line"/>
      <point x="462" y="272" type="line"/>
      <point x="372" y="244" type="line"/>
      <point x="372" y="223" type="line"/>
    </contour>
    <contour>
      <point x="166" y="258" type="line"/>
      <point x="166" y="357" type="line"/>
      <point x="146" y="357" type="line"/>
      <point x="146" y="258" type="line"/>
    </contour>
    <contour>
      <point x="278" y="337" type="line"/>
      <point x="278" y="357" type="line"/>
      <point x="150" y="357" type="line"/>
      <point x="150" y="337" type="line"/>
    </contour>
    <contour>
      <point x="276" y="258" type="line"/>
      <point x="276" y="278" type="line"/>
      <point x="150" y="278" type="line"/>
      <point x="150" y="258" type="line"/>
    </contour>
    <contour>
      <point x="451" y="375" type="line"/>
      <point x="312" y="289" type="line"/>
      <point x="324" y="273" type="line"/>
      <point x="468" y="361" type="line"/>
    </contour>
    <contour>
      <point x="473" y="256" type="line"/>
      <point x="488" y="271" type="line"/>
      <point x="323" y="289" type="line"/>
      <point x="312" y="273" type="line"/>
    </contour>
    <contour>
      <point x="325" y="274" type="line"/>
      <point x="310" y="285" type="line"/>
      <point x="261" y="273" type="line"/>
      <point x="277" y="262" type="line"/>
    </contour>
    <contour>
      <point x="280" y="222" type="line"/>
      <point x="280" y="277" type="line"/>
      <point x="260" y="277" type="line"/>
      <point x="260" y="222" type="line"/>
    </contour>
    <contour>
      <point x="451" y="360" type="line"/>
      <point x="453" y="378" type="line"/>
      <point x="352" y="360" type="line"/>
      <point x="352" y="342" type="line"/>
    </contour>
    <contour>
      <point x="345" y="359" type="line"/>
      <point x="310" y="289" type="line"/>
      <point x="328" y="281" type="line"/>
      <point x="362" y="351" type="line"/>
    </contour>
    <contour>
      <point x="325" y="288" type="line"/>
      <point x="277" y="360" type="line"/>
      <point x="261" y="349" type="line"/>
      <point x="310" y="277" type="line"/>
    </contour>
  </outline>
</glyph>
<glyph name="five" format="2">
  <advance width="501"/>
  <unicode hex="0035"/>
  <outline>
    <contour>
      <point x="456" y="530" type="line"/>
      <point x="456" y="550" type="line"/>
      <point x="66" y="550" type="line"/>
      <point x="66" y="530" type="line"/>
    </contour>
    <contour>
      <point x="436" y="394" type="line"/>
      <point x="456" y="394" type="line"/>
      <point x="456" y="539" type="line"/>
      <point x="436" y="539" type="line"/>
    </contour>
    <contour>
      <point x="451" y="394" type="line"/>
      <point x="451" y="414" type="line"/>
      <point x="198" y="414" type="line"/>
      <point x="198" y="394" type="line"/>
    </contour>
    <contour>
      <point x="194" y="400" type="line"/>
      <point x="209" y="413" type="line"/>
      <point x="139" y="443" type="line"/>
      <point x="125" y="429" type="line"/>
    </contour>
    <contour>
      <point x="371" y="429" type="line"/>
      <point x="371" y="449" type="line"/>
      <point x="127" y="449" type="line"/>
      <point x="127" y="429" type="line"/>
    </contour>
    <contour>
      <point x="437" y="399" type="line"/>
      <point x="451" y="414" type="line"/>
      <point x="361" y="448" type="line"/>
      <point x="348" y="432" type="line"/>
    </contour>
    <contour>
      <point x="125" y="431" type="line"/>
      <point x="139" y="443" type="line"/>
      <point x="84" y="540" type="line"/>
      <point x="70" y="528" type="line"/>
    </contour>
    <contour>
      <point x="361" y="430" type="line"/>
      <point x="447" y="530" type="line"/>
      <point x="435" y="542" type="line"/>
      <point x="348" y="443" type="line"/>
    </contour>
    <contour>
      <point x="18" y="248" type="line"/>
      <point x="38" y="248" type="line"/>
      <point x="81" y="550" type="line"/>
      <point x="61" y="550" type="line"/>
    </contour>
    <contour>
      <point x="491" y="301" type="line"/>
      <point x="471" y="300" type="line"/>
      <point x="471" y="134" type="line"/>
      <point x="491" y="134" type="line"/>
    </contour>
    <contour>
      <point x="385" y="250" type="line"/>
      <point x="365" y="250" type="line"/>
      <point x="365" y="124" type="line"/>
      <point x="385" y="124" type="line"/>
    </contour>
    <contour>
      <point x="285" y="218" type="line"/>
      <point x="276" y="202" type="line"/>
      <point x="368" y="122" type="line"/>
      <point x="377" y="138" type="line"/>
    </contour>
    <contour>
      <point x="480" y="150" type="line"/>
      <point x="353" y="55" type="line"/>
      <point x="365" y="39" type="line"/>
      <point x="491" y="134" type="line"/>
    </contour>
    <contour>
      <point x="293" y="242" type="line"/>
      <point x="273" y="242" type="line"/>
      <point x="273" y="204" type="line"/>
      <point x="293" y="204" type="line"/>
    </contour>
    <contour>
      <point x="374" y="139" type="line"/>
      <point x="284" y="89" type="line"/>
      <point x="295" y="74" type="line"/>
      <point x="385" y="124" type="line"/>
    </contour>
    <contour>
      <point x="280" y="220" type="line"/>
      <point x="253" y="198" type="line"/>
      <point x="265" y="182" type="line"/>
      <point x="293" y="204" type="line"/>
    </contour>
    <contour>
      <point x="265" y="203" type="line"/>
      <point x="225" y="203" type="line"/>
      <point x="225" y="182" type="line"/>
      <point x="265" y="182" type="line"/>
    </contour>
    <contour>
      <point x="214" y="213" type="line"/>
      <point x="194" y="213" type="line"/>
      <point x="194" y="205" type="line"/>
      <point x="214" y="205" type="line"/>
    </contour>
    <contour>
      <point x="205" y="220" type="line"/>
      <point x="193" y="205" type="line"/>
      <point x="225" y="182" type="line"/>
      <point x="236" y="197" type="line"/>
    </contour>
    <contour>
      <point x="240" y="196" type="line"/>
      <point x="222" y="202" type="line"/>
      <point x="160" y="87" type="line"/>
      <point x="180" y="87" type="line"/>
    </contour>
    <contour>
      <point x="295" y="94" type="line"/>
      <point x="170" y="94" type="line"/>
      <point x="170" y="74" type="line"/>
      <point x="295" y="74" type="line"/>
    </contour>
    <contour>
      <point x="214" y="228" type="line"/>
      <point x="10" y="228" type="line"/>
      <point x="10" y="208" type="line"/>
      <point x="214" y="208" type="line"/>
    </contour>
    <contour>
      <point x="117" y="147" type="line"/>
      <point x="106" y="132" type="line"/>
      <point x="164" y="77" type="line"/>
      <point x="176" y="93" type="line"/>
    </contour>
    <contour>
      <point x="365" y="59" type="line"/>
      <point x="139" y="59" type="line"/>
      <point x="139" y="39" type="line"/>
      <point x="365" y="39" type="line"/>
    </contour>
    <contour>
      <point x="117" y="126" type="line"/>
      <point x="107" y="146" type="line"/>
      <point x="19" y="164" type="line"/>
      <point x="26" y="144" type="line"/>
    </contour>
    <contour>
      <point x="163" y="88" type="line"/>
      <point x="133" y="50" type="line"/>
      <point x="151" y="44" type="line"/>
      <point x="182" y="82" type="line"/>
    </contour>
    <contour>
      <point x="30" y="218" type="line"/>
      <point x="10" y="218" type="line"/>
      <point x="10" y="153" type="line"/>
      <point x="30" y="153" type="line"/>
    </contour>
    <contour>
      <point x="23" y="168" type="line"/>
      <point x="10" y="153" type="line"/>
      <point x="139" y="39" type="line"/>
      <point x="152" y="54" type="line"/>
    </contour>
    <contour>
      <point x="107" y="146" type="line"/>
      <point x="115" y="130" type="line"/>
      <point x="207" y="203" type="line"/>
      <point x="200" y="219" type="line"/>
    </contour>
    <contour>
      <point x="376" y="139" type="line"/>
      <point x="373" y="120" type="line"/>
      <point x="478" y="131" type="line"/>
      <point x="482" y="150" type="line"/>
    </contour>
    <contour>
      <point x="267" y="198" type="line"/>
      <point x="250" y="192" type="line"/>
      <point x="283" y="79" type="line"/>
      <point x="300" y="85" type="line"/>
    </contour>
    <contour>
      <point x="291" y="90" type="line"/>
      <point x="276" y="78" type="line"/>
      <point x="355" y="48" type="line"/>
      <point x="370" y="60" type="line"/>
    </contour>
    <contour>
      <point x="102" y="297" type="line"/>
      <point x="122" y="297" type="line"/>
      <point x="140" y="449" type="line"/>
      <point x="120" y="449" type="line"/>
    </contour>
    <contour>
      <point x="189" y="379" type="line"/>
      <point x="209" y="379" type="line"/>
      <point x="209" y="414" type="line"/>
      <point x="189" y="414" type="line"/>
    </contour>
    <contour>
      <point x="110" y="314" type="line"/>
      <point x="28" y="263" type="line"/>
      <point x="41" y="251" type="line"/>
      <point x="123" y="302" type="line"/>
    </contour>
    <contour>
      <point x="121" y="310" type="line"/>
      <point x="110" y="297" type="line"/>
      <point x="255" y="253" type="line"/>
      <point x="265" y="266" type="line"/>
    </contour>
    <contour>
      <point x="263" y="248" type="line"/>
      <point x="263" y="266" type="line"/>
      <point x="24" y="266" type="line"/>
      <point x="24" y="248" type="line"/>
    </contour>
    <contour>
      <point x="285" y="226" type="line"/>
      <point x="379" y="235" type="line"/>
      <point x="371" y="252" type="line"/>
      <point x="277" y="243" type="line"/>
    </contour>
    <contour>
      <point x="280" y="229" type="line"/>
      <point x="293" y="242" type="line"/>
      <point x="263" y="266" type="line"/>
      <point x="250" y="253" type="line"/>
    </contour>
    <contour>
      <point x="357" y="373" type="line"/>
      <point x="357" y="393" type="line"/>
      <point x="189" y="393" type="line"/>
      <point x="189" y="373" type="line"/>
    </contour>
    <contour>
      <point x="480" y="285" type="line"/>
      <point x="491" y="301" type="line"/>
      <point x="357" y="393" type="line"/>
      <point x="345" y="377" type="line"/>
    </contour>
    <contour>
      <point x="263" y="248" type="line"/>
      <point x="311" y="302" type="line"/>
      <point x="296" y="310" type="line"/>
      <point x="246" y="255" type="line"/>
    </contour>
    <contour>
      <point x="372" y="235" type="line"/>
      <point x="385" y="250" type="line"/>
      <point x="307" y="317" type="line"/>
      <point x="294" y="301" type="line"/>
    </contour>
    <contour>
      <point x="377" y="234" type="line"/>
      <point x="478" y="285" type="line"/>
      <point x="475" y="304" type="line"/>
      <point x="373" y="253" type="line"/>
    </contour>
    <contour>
      <point x="307" y="317" type="line"/>
      <point x="110" y="317" type="line"/>
      <point x="110" y="297" type="line"/>
      <point x="307" y="297" type="line"/>
    </contour>
    <contour>
      <point x="192" y="389" type="line"/>
      <point x="114" y="320" type="line"/>
      <point x="124" y="306" type="line"/>
      <point x="202" y="375" type="line"/>
    </contour>
    <contour>
      <point x="352" y="389" type="line"/>
      <point x="294" y="312" type="line"/>
      <point x="309" y="301" type="line"/>
      <point x="367" y="379" type="line"/>
    </contour>
  </outline>
</glyph>
<glyph name="colon" format="2">
  <advance width="195"/>
  <unicode hex="003A"/>
  <outline>
    <contour>
      <point x="15" y="104" type="line"/>
      <point x="180" y="104" type="line"/>
      <point x="180" y="122" type="line"/>
      <point x="15" y="122" type="line"/>
    </contour>
    <contour>
      <point x="29" y="104" type="line"/>
      <point x="100" y="130" type="line"/>
      <point x="91" y="150" type="line"/>
      <point x="15" y="118" type="line"/>
    </contour>
    <contour>
      <point x="166" y="104" type="line"/>
      <point x="180" y="118" type="line"/>
      <point x="103" y="151" type="line"/>
      <point x="94" y="131" type="line"/>
    </contour>
    <contour>
      <point x="15" y="104" type="line"/>
      <point x="35" y="104" type="line"/>
      <point x="35" y="279" type="line"/>
      <point x="15" y="279" type="line"/>
    </contour>
    <contour>
      <point x="91" y="135" type="line"/>
      <point x="104" y="135" type="line"/>
      <point x="104" y="152" type="line"/>
      <point x="91" y="152" type="line"/>
    </contour>
    <contour>
      <point x="160" y="104" type="line"/>
      <point x="180" y="104" type="line"/>
      <point x="180" y="279" type="line"/>
      <point x="160" y="279" type="line"/>
    </contour>
    <contour>
      <point x="92" y="137" type="line"/>
      <point x="101" y="157" type="line"/>
      <point x="29" y="279" type="line"/>
      <point x="15" y="265" type="line"/>
    </contour>
    <contour>
      <point x="18" y="261" type="line"/>
      <point x="180" y="261" type="line"/>
      <point x="180" y="279" type="line"/>
      <point x="18" y="279" type="line"/>
    </contour>
    <contour>
      <point x="103" y="137" type="line"/>
      <point x="179" y="265" type="line"/>
      <point x="165" y="279" type="line"/>
      <point x="94" y="157" type="line"/>
    </contour>
    <contour>
      <point x="15" y="284" type="line"/>
      <point x="180" y="284" type="line"/>
      <point x="180" y="302" type="line"/>
      <point x="15" y="302" type="line"/>
    </contour>
    <contour>
      <point x="29" y="284" type="line"/>
      <point x="100" y="310" type="line"/>
      <point x="91" y="330" type="line"/>
      <point x="15" y="298" type="line"/>
    </contour>
    <contour>
      <point x="166" y="284" type="line"/>
      <point x="180" y="298" type="line"/>
      <point x="103" y="331" type="line"/>
      <point x="94" y="311" type="line"/>
    </contour>
    <contour>
      <point x="15" y="284" type="line"/>
      <point x="35" y="284" type="line"/>
      <point x="35" y="459" type="line"/>
      <point x="15" y="459" type="line"/>
    </contour>
    <contour>
      <point x="91" y="315" type="line"/>
      <point x="104" y="315" type="line"/>
      <point x="104" y="332" type="line"/>
      <point x="91" y="332" type="line"/>
    </contour>
    <contour>
      <point x="160" y="284" type="line"/>
      <point x="180" y="284" type="line"/>
      <point x="180" y="459" type="line"/>
      <point x="160" y="459" type="line"/>
    </contour>
    <contour>
      <point x="92" y="317" type="line"/>
      <point x="101" y="337" type="line"/>
      <point x="29" y="459" type="line"/>
      <point x="15" y="445" type="line"/>
    </contour>
    <contour>
      <point x="18" y="441" type="line"/>
      <point x="180" y="441" type="line"/>
      <point x="180" y="459" type="line"/>
      <point x="18" y="459" type="line"/>
    </contour>
    <contour>
      <point x="103" y="317" type="line"/>
      <point x="179" y="445" type="line"/>
      <point x="165" y="459" type="line"/>
      <point x="94" y="337" type="line"/>
    </contour>
  </outline>
</glyph>
<glyph name="semicolon" format="2">
  <advance width="195"/>
  <unicode hex="003B"/>
  <outline>
    <contour>
      <point x="15" y="284" type="line"/>
      <point x="180" y="284" type="line"/>
      <point x="180" y="302" type="line"/>
      <point x="15" y="302" type="line"/>
    </contour>
    <contour>
      <point x="29" y="284" type="line"/>
      <point x="100" y="310" type="line"/>
      <point x="91" y="330" type="line"/>
      <point x="15" y="298" type="line"/>
    </contour>
    <contour>
      <point x="166" y="284" type="line"/>
      <point x="180" y="298" type="line"/>
      <point x="103" y="331" type="line"/>
      <point x="94" y="311" type="line"/>
    </contour>
    <contour>
      <point x="15" y="284" type="line"/>
      <point x="35" y="284" type="line"/>
      <point x="35" y="459" type="line"/>
      <point x="15" y="459" type="line"/>
    </contour>
    <contour>
      <point x="91" y="315" type="line"/>
      <point x="104" y="315" type="line"/>
      <point x="104" y="332" type="line"/>
      <point x="91" y="332" type="line"/>
    </contour>
    <contour>
      <point x="160" y="284" type="line"/>
      <point x="180" y="284" type="line"/>
      <point x="180" y="459" type="line"/>
      <point x="160" y="459" type="line"/>
    </contour>
    <contour>
      <point x="92" y="317" type="line"/>
      <point x="101" y="337" type="line"/>
      <point x="29" y="459" type="line"/>
      <point x="15" y="445" type="line"/>
    </contour>
    <contour>
      <point x="18" y="441" type="line"/>
      <point x="180" y="441" type="line"/>
      <point x="180" y="459" type="line"/>
      <point x="18" y="459" type="line"/>
    </contour>
    <contour>
      <point x="103" y="317" type="line"/>
      <point x="179" y="445" type="line"/>
      <point x="165" y="459" type="line"/>
      <point x="94" y="337" type="line"/>
    </contour>
    <contour>
      <point x="15" y="104" type="line"/>
      <point x="180" y="104" type="line"/>
      <point x="180" y="122" type="line"/>
      <point x="15" y="122" type="line"/>
    </contour>
    <contour>
      <point x="29" y="104" type="line"/>
      <point x="100" y="130" type="line"/>
      <point x="91" y="150" type="line"/>
      <point x="15" y="118" type="line"/>
    </contour>
    <contour>
      <point x="166" y="104" type="line"/>
      <point x="180" y="118" type="line"/>
      <point x="103" y="151" type="line"/>
      <point x="94" y="131" type="line"/>
    </contour>
    <contour>
      <point x="15" y="104" type="line"/>
      <point x="35" y="104" type="line"/>
      <point x="35" y="269" type="line"/>
      <point x="15" y="269" type="line"/>
    </contour>
    <contour>
      <point x="91" y="135" type="line"/>
      <point x="104" y="135" type="line"/>
      <point x="104" y="152" type="line"/>
      <point x="91" y="152" type="line"/>
    </contour>
    <contour>
      <point x="160" y="104" type="line"/>
      <point x="180" y="104" type="line"/>
      <point x="180" y="269" type="line"/>
      <point x="160" y="269" type="line"/>
    </contour>
    <contour>
      <point x="92" y="137" type="line"/>
      <point x="101" y="157" type="line"/>
      <point x="29" y="269" type="line"/>
      <point x="15" y="255" type="line"/>
    </contour>
    <contour>
      <point x="18" y="251" type="line"/>
      <point x="180" y="251" type="line"/>
      <point x="180" y="269" type="line"/>
      <point x="18" y="269" type="line"/>
    </contour>
    <contour>
      <point x="103" y="137" type="line"/>
      <point x="179" y="255" type="line"/>
      <point x="165" y="269" type="line"/>
      <point x="94" y="157" type="line"/>
    </contour>
    <contour>
      <point x="15" y="-23" type="line"/>
      <point x="35" y="-23" type="line"/>
      <point x="35" y="57" type="line"/>
      <point x="15" y="60" type="line"/>
    </contour>
    <contour>
      <point x="28" y="45" type="line"/>
      <point x="94" y="104" type="line"/>
      <point x="77" y="118" type="line"/>
      <point x="15" y="60" type="line"/>
    </contour>
    <contour>
      <point x="30" y="-35" type="line"/>
      <point x="180" y="104" type="line"/>
      <point x="167" y="119" type="line"/>
      <point x="15" y="-22" type="line"/>
      <point x="15" y="-35" type="line"/>
    </contour>
  </outline>
</glyph>
<glyph name="C" format="2">
  <advance width="508"/>
  <unicode hex="0043"/>
  <anchor x="258" y="50" name="bottom"/>
  <anchor x="258" y="550" name="top"/>
  <outline>
    <contour>
      <point x="375" y="50" type="line"/>
      <point x="503" y="178" type="line"/>
      <point x="490" y="191" type="line"/>
      <point x="361" y="63" type="line"/>
    </contour>
    <contour>
      <point x="159" y="50" type="line"/>
      <point x="176" y="62" type="line"/>
      <point x="20" y="191" type="line"/>
      <point x="5" y="178" type="line"/>
    </contour>
    <contour>
      <point x="23" y="178" type="line"/>
      <point x="103" y="188" type="line"/>
      <point x="98" y="203" type="line"/>
      <point x="18" y="193" type="line"/>
    </contour>
    <contour>
      <point x="159" y="50" type="line"/>
      <point x="375" y="50" type="line"/>
      <point x="375" y="67" type="line"/>
      <point x="161" y="67" type="line"/>
    </contour>
    <contour>
      <point x="173" y="55" type="line"/>
      <point x="218" y="85" type="line"/>
      <point x="203" y="96" type="line"/>
      <point x="154" y="60" type="line"/>
    </contour>
    <contour>
      <point x="5" y="178" type="line"/>
      <point x="26" y="178" type="line"/>
      <point x="26" y="407" type="line"/>
      <point x="5" y="407" type="line"/>
    </contour>
    <contour>
      <point x="199" y="81" type="line"/>
      <point x="212" y="93" type="line"/>
      <point x="105" y="203" type="line"/>
      <point x="92" y="191" type="line"/>
    </contour>
    <contour>
      <point x="103" y="188" type="line"/>
      <point x="232" y="237" type="line"/>
      <point x="225" y="251" type="line"/>
      <point x="97" y="202" type="line"/>
    </contour>
    <contour>
      <point x="199" y="81" type="line"/>
      <point x="345" y="81" type="line"/>
      <point x="345" y="97" type="line"/>
      <point x="199" y="97" type="line"/>
    </contour>
    <contour>
      <point x="217" y="87" type="line"/>
      <point x="258" y="210" type="line"/>
      <point x="242" y="219" type="line"/>
      <point x="199" y="97" type="line"/>
    </contour>
    <contour>
      <point x="92" y="191" type="line"/>
      <point x="114" y="191" type="line"/>
      <point x="114" y="341" type="line"/>
      <point x="92" y="341" type="line"/>
    </contour>
    <contour>
      <point x="368" y="55" type="line"/>
      <point x="386" y="61" type="line"/>
      <point x="348" y="99" type="line"/>
      <point x="330" y="91" type="line"/>
    </contour>
    <contour>
      <point x="244" y="205" type="line"/>
      <point x="261" y="218" type="line"/>
      <point x="230" y="253" type="line"/>
      <point x="213" y="240" type="line"/>
    </contour>
    <contour>
      <point x="244" y="205" type="line"/>
      <point x="290" y="205" type="line"/>
      <point x="290" y="221" type="line"/>
      <point x="244" y="221" type="line"/>
    </contour>
    <contour>
      <point x="101" y="327" type="line"/>
      <point x="110" y="343" type="line"/>
      <point x="22" y="406" type="line"/>
      <point x="16" y="390" type="line"/>
    </contour>
    <contour>
      <point x="335" y="87" type="line"/>
      <point x="350" y="96" type="line"/>
      <point x="295" y="224" type="line"/>
      <point x="280" y="215" type="line"/>
    </contour>
    <contour>
      <point x="213" y="240" type="line"/>
      <point x="234" y="240" type="line"/>
      <point x="234" y="352" type="line"/>
      <point x="213" y="352" type="line"/>
    </contour>
    <contour>
      <point x="345" y="81" type="line"/>
      <point x="423" y="177" type="line"/>
      <point x="407" y="185" type="line"/>
      <point x="336" y="97" type="line"/>
    </contour>
    <contour>
      <point x="298" y="205" type="line"/>
      <point x="340" y="240" type="line"/>
      <point x="327" y="255" type="line"/>
      <point x="283" y="217" type="line"/>
    </contour>
    <contour>
      <point x="228" y="343" type="line"/>
      <point x="234" y="360" type="line"/>
      <point x="105" y="342" type="line"/>
      <point x="99" y="327" type="line"/>
    </contour>
    <contour>
      <point x="321" y="242" type="line"/>
      <point x="342" y="241" type="line"/>
      <point x="342" y="277" type="line"/>
      <point x="321" y="277" type="line"/>
    </contour>
    <contour>
      <point x="20" y="394" type="line"/>
      <point x="155" y="538" type="line"/>
      <point x="140" y="550" type="line"/>
      <point x="5" y="407" type="line"/>
    </contour>
    <contour>
      <point x="322" y="257" type="line"/>
      <point x="502" y="257" type="line"/>
      <point x="502" y="277" type="line"/>
      <point x="322" y="277" type="line"/>
    </contour>
    <contour>
      <point x="107" y="328" type="line"/>
      <point x="204" y="419" type="line"/>
      <point x="189" y="432" type="line"/>
      <point x="92" y="341" type="line"/>
    </contour>
    <contour>
      <point x="412" y="170" type="line"/>
      <point x="418" y="186" type="line"/>
      <point x="331" y="251" type="line"/>
      <point x="325" y="235" type="line"/>
    </contour>
    <contour>
      <point x="410" y="177" type="line"/>
      <point x="424" y="186" type="line"/>
      <point x="343" y="269" type="line"/>
      <point x="329" y="261" type="line"/>
    </contour>
    <contour>
      <point x="423" y="177" type="line"/>
      <point x="497" y="263" type="line"/>
      <point x="482" y="271" type="line"/>
      <point x="408" y="186" type="line"/>
    </contour>
    <contour>
      <point x="487" y="173" type="line"/>
      <point x="494" y="190" type="line"/>
      <point x="416" y="188" type="line"/>
      <point x="409" y="171" type="line"/>
    </contour>
    <contour>
      <point x="229" y="340" type="line"/>
      <point x="263" y="371" type="line"/>
      <point x="248" y="383" type="line"/>
      <point x="213" y="352" type="line"/>
    </contour>
    <contour>
      <point x="483" y="178" type="line"/>
      <point x="503" y="178" type="line"/>
      <point x="503" y="276" type="line"/>
      <point x="483" y="276" type="line"/>
    </contour>
    <contour>
      <point x="248" y="371" type="line"/>
      <point x="262" y="380" type="line"/>
      <point x="197" y="427" type="line"/>
      <point x="183" y="418" type="line"/>
    </contour>
    <contour>
      <point x="322" y="303" type="line"/>
      <point x="344" y="303" type="line"/>
      <point x="344" y="353" type="line"/>
      <point x="322" y="353" type="line"/>
    </contour>
    <contour>
      <point x="248" y="366" type="line"/>
      <point x="295" y="366" type="line"/>
      <point x="295" y="383" type="line"/>
      <point x="248" y="383" type="line"/>
    </contour>
    <contour>
      <point x="183" y="411" type="line"/>
      <point x="199" y="418" type="line"/>
      <point x="156" y="545" type="line"/>
      <point x="140" y="538" type="line"/>
    </contour>
    <contour>
      <point x="331" y="340" type="line"/>
      <point x="346" y="351" type="line"/>
      <point x="295" y="383" type="line"/>
      <point x="282" y="370" type="line"/>
    </contour>
    <contour>
      <point x="332" y="303" type="line"/>
      <point x="501" y="303" type="line"/>
      <point x="501" y="323" type="line"/>
      <point x="332" y="323" type="line"/>
    </contour>
    <contour>
      <point x="338" y="312" type="line"/>
      <point x="419" y="342" type="line"/>
      <point x="410" y="358" type="line"/>
      <point x="329" y="328" type="line"/>
    </contour>
    <contour>
      <point x="186" y="416" type="line"/>
      <point x="341" y="416" type="line"/>
      <point x="341" y="432" type="line"/>
      <point x="186" y="432" type="line"/>
    </contour>
    <contour>
      <point x="297" y="371" type="line"/>
      <point x="344" y="415" type="line"/>
      <point x="329" y="424" type="line"/>
      <point x="282" y="380" type="line"/>
    </contour>
    <contour>
      <point x="330" y="345" type="line"/>
      <point x="412" y="342" type="line"/>
      <point x="412" y="357" type="line"/>
      <point x="323" y="359" type="line"/>
    </contour>
    <contour>
      <point x="140" y="534" type="line"/>
      <point x="383" y="534" type="line"/>
      <point x="383" y="550" type="line"/>
      <point x="140" y="550" type="line"/>
    </contour>
    <contour>
      <point x="478" y="314" type="line"/>
      <point x="492" y="329" type="line"/>
      <point x="416" y="355" type="line"/>
      <point x="402" y="341" type="line"/>
    </contour>
    <contour>
      <point x="401" y="346" type="line"/>
      <point x="416" y="355" type="line"/>
      <point x="339" y="429" type="line"/>
      <point x="324" y="420" type="line"/>
    </contour>
    <contour>
      <point x="341" y="414" type="line"/>
      <point x="389" y="535" type="line"/>
      <point x="372" y="543" type="line"/>
      <point x="325" y="417" type="line"/>
    </contour>
    <contour>
      <point x="417" y="344" type="line"/>
      <point x="487" y="404" type="line"/>
      <point x="480" y="420" type="line"/>
      <point x="406" y="356" type="line"/>
    </contour>
    <contour>
      <point x="482" y="311" type="line"/>
      <point x="501" y="311" type="line"/>
      <point x="501" y="418" type="line"/>
      <point x="482" y="418" type="line"/>
    </contour>
    <contour>
      <point x="485" y="406" type="line"/>
      <point x="501" y="418" type="line"/>
      <point x="383" y="550" type="line"/>
      <point x="366" y="539" type="line"/>
    </contour>
  </outline>
</glyph>
<glyph name="D" format="2">
  <advance width="580"/>
  <unicode hex="0044"/>
  <anchor x="263" y="50" name="bottom"/>
  <anchor x="263" y="300" name="center"/>
  <anchor x="263" y="550" name="top"/>
  <outline>
    <contour>
      <point x="230" y="379" type="line"/>
      <point x="242" y="394" type="line"/>
      <point x="126" y="424" type="line"/>
      <point x="117" y="408" type="line"/>
    </contour>
    <contour>
      <point x="32" y="57" type="line"/>
      <point x="131" y="118" type="line"/>
      <point x="106" y="122" type="line"/>
      <point x="13" y="64" type="line"/>
    </contour>
    <contour>
      <point x="28" y="50" type="line"/>
      <point x="409" y="50" type="line"/>
      <point x="414" y="70" type="line"/>
      <point x="28" y="70" type="line"/>
    </contour>
    <contour>
      <point x="10" y="50" type="line"/>
      <point x="30" y="50" type="line"/>
      <point x="30" y="550" type="line"/>
      <point x="10" y="550" type="line"/>
    </contour>
    <contour>
      <point x="130" y="116" type="line"/>
      <point x="252" y="231" type="line"/>
      <point x="229" y="235" type="line"/>
      <point x="109" y="122" type="line"/>
    </contour>
    <contour>
      <point x="122" y="105" type="line"/>
      <point x="365" y="105" type="line"/>
      <point x="365" y="123" type="line"/>
      <point x="122" y="123" type="line"/>
    </contour>
    <contour>
      <point x="104" y="105" type="line"/>
      <point x="124" y="105" type="line"/>
      <point x="124" y="427" type="line"/>
      <point x="104" y="427" type="line"/>
    </contour>
    <contour>
      <point x="227" y="218" type="line"/>
      <point x="308" y="218" type="line"/>
      <point x="308" y="236" type="line"/>
      <point x="227" y="236" type="line"/>
    </contour>
    <contour>
      <point x="396" y="59" type="line"/>
      <point x="416" y="66" type="line"/>
      <point x="373" y="119" type="line"/>
      <point x="357" y="110" type="line"/>
    </contour>
    <contour>
      <point x="358" y="108" type="line"/>
      <point x="374" y="118" type="line"/>
      <point x="308" y="233" type="line"/>
      <point x="295" y="223" type="line"/>
    </contour>
    <contour>
      <point x="308" y="218" type="line"/>
      <point x="352" y="261" type="line"/>
      <point x="337" y="273" type="line"/>
      <point x="293" y="230" type="line"/>
    </contour>
    <contour>
      <point x="227" y="226" type="line"/>
      <point x="247" y="226" type="line"/>
      <point x="247" y="382" type="line"/>
      <point x="227" y="382" type="line"/>
    </contour>
    <contour>
      <point x="368" y="104" type="line"/>
      <point x="461" y="201" type="line"/>
      <point x="444" y="209" type="line"/>
      <point x="357" y="118" type="line"/>
    </contour>
    <contour>
      <point x="409" y="50" type="line"/>
      <point x="575" y="196" type="line"/>
      <point x="555" y="204" type="line"/>
      <point x="395" y="63" type="line"/>
    </contour>
    <contour>
      <point x="445" y="193" type="line"/>
      <point x="456" y="206" type="line"/>
      <point x="339" y="274" type="line"/>
      <point x="335" y="259" type="line"/>
    </contour>
    <contour>
      <point x="335" y="258" type="line"/>
      <point x="355" y="260" type="line"/>
      <point x="355" y="355" type="line"/>
      <point x="335" y="355" type="line"/>
    </contour>
    <contour>
      <point x="557" y="192" type="line"/>
      <point x="568" y="210" type="line"/>
      <point x="452" y="210" type="line"/>
      <point x="446" y="193" type="line"/>
    </contour>
    <contour>
      <point x="227" y="380" type="line"/>
      <point x="306" y="380" type="line"/>
      <point x="306" y="397" type="line"/>
      <point x="227" y="397" type="line"/>
    </contour>
    <contour>
      <point x="342" y="341" type="line"/>
      <point x="356" y="354" type="line"/>
      <point x="306" y="397" type="line"/>
      <point x="295" y="382" type="line"/>
    </contour>
    <contour>
      <point x="107" y="410" type="line"/>
      <point x="353" y="410" type="line"/>
      <point x="353" y="427" type="line"/>
      <point x="107" y="427" type="line"/>
    </contour>
    <contour>
      <point x="436" y="204" type="line"/>
      <point x="456" y="204" type="line"/>
      <point x="456" y="354" type="line"/>
      <point x="436" y="354" type="line"/>
    </contour>
    <contour>
      <point x="306" y="380" type="line"/>
      <point x="361" y="417" type="line"/>
      <point x="346" y="426" type="line"/>
      <point x="292" y="391" type="line"/>
    </contour>
    <contour>
      <point x="26" y="530" type="line"/>
      <point x="416" y="530" type="line"/>
      <point x="420" y="550" type="line"/>
      <point x="26" y="550" type="line"/>
    </contour>
    <contour>
      <point x="341" y="339" type="line"/>
      <point x="453" y="348" type="line"/>
      <point x="437" y="363" type="line"/>
      <point x="336" y="354" type="line"/>
    </contour>
    <contour>
      <point x="446" y="339" type="line"/>
      <point x="456" y="354" type="line"/>
      <point x="356" y="423" type="line"/>
      <point x="342" y="410" type="line"/>
    </contour>
    <contour>
      <point x="575" y="196" type="line"/>
      <point x="575" y="419" type="line"/>
      <point x="555" y="419" type="line"/>
      <point x="555" y="200" type="line"/>
    </contour>
    <contour>
      <point x="360" y="414" type="line"/>
      <point x="417" y="530" type="line"/>
      <point x="399" y="536" type="line"/>
      <point x="346" y="424" type="line"/>
    </contour>
    <contour>
      <point x="451" y="347" type="line"/>
      <point x="568" y="405" type="line"/>
      <point x="561" y="422" type="line"/>
      <point x="440" y="362" type="line"/>
    </contour>
    <contour>
      <point x="557" y="410" type="line"/>
      <point x="575" y="419" type="line"/>
      <point x="419" y="550" type="line"/>
      <point x="408" y="536" type="line"/>
    </contour>
    <contour>
      <point x="112" y="410" type="line"/>
      <point x="124" y="425" type="line"/>
      <point x="26" y="541" type="line"/>
      <point x="17" y="525" type="line"/>
    </contour>
  </outline>
</glyph>
<glyph name="I" format="2">
  <advance width="260"/>
  <unicode hex="0049"/>
  <anchor x="130" y="50" name="bottom"/>
  <anchor x="228" y="68" name="ogonek"/>
  <anchor x="130" y="550" name="top"/>
  <anchor x="25" y="550" name="topleft"/>
  <outline>
    <contour>
      <point x="10" y="50" type="line"/>
      <point x="250" y="50" type="line"/>
      <point x="250" y="69" type="line"/>
      <point x="10" y="69" type="line"/>
    </contour>
    <contour>
      <point x="23" y="50" type="line"/>
      <point x="135" y="106" type="line"/>
      <point x="122" y="121" type="line"/>
      <point x="10" y="66" type="line"/>
    </contour>
    <contour>
      <point x="237" y="50" type="line"/>
      <point x="250" y="66" type="line"/>
      <point x="138" y="121" type="line"/>
      <point x="125" y="106" type="line"/>
    </contour>
    <contour>
      <point x="10" y="50" type="line"/>
      <point x="30" y="50" type="line"/>
      <point x="30" y="550" type="line"/>
      <point x="10" y="550" type="line"/>
    </contour>
    <contour>
      <point x="120" y="104" type="line"/>
      <point x="140" y="104" type="line"/>
      <point x="140" y="402" type="line"/>
      <point x="120" y="402" type="line"/>
    </contour>
    <contour>
      <point x="230" y="50" type="line"/>
      <point x="250" y="50" type="line"/>
      <point x="250" y="550" type="line"/>
      <point x="230" y="550" type="line"/>
    </contour>
    <contour>
      <point x="122" y="387" type="line"/>
      <point x="135" y="400" type="line"/>
      <point x="23" y="550" type="line"/>
      <point x="10" y="537" type="line"/>
    </contour>
    <contour>
      <point x="15" y="530" type="line"/>
      <point x="250" y="530" type="line"/>
      <point x="250" y="550" type="line"/>
      <point x="15" y="550" type="line"/>
    </contour>
    <contour>
      <point x="137" y="387" type="line"/>
      <point x="249" y="537" type="line"/>
      <point x="236" y="550" type="line"/>
      <point x="124" y="400" type="line"/>
    </contour>
  </outline>
</glyph>
<glyph name="K" format="2">
  <advance width="596"/>
  <unicode hex="004B"/>
  <anchor x="301" y="50" name="bottom"/>
  <anchor x="301" y="550" name="top"/>
  <outline>
    <contour>
      <point x="10" y="50" type="line"/>
      <point x="250" y="50" type="line"/>
      <point x="250" y="67" type="line"/>
      <point x="10" y="67" type="line"/>
    </contour>
    <contour>
      <point x="23" y="50" type="line"/>
      <point x="135" y="102" type="line"/>
      <point x="122" y="114" type="line"/>
      <point x="10" y="61" type="line"/>
    </contour>
    <contour>
      <point x="237" y="50" type="line"/>
      <point x="250" y="61" type="line"/>
      <point x="138" y="114" type="line"/>
      <point x="125" y="102" type="line"/>
    </contour>
    <contour>
      <point x="10" y="50" type="line"/>
      <point x="30" y="50" type="line"/>
      <point x="30" y="550" type="line"/>
      <point x="10" y="550" type="line"/>
    </contour>
    <contour>
      <point x="120" y="102" type="line"/>
      <point x="140" y="102" type="line"/>
      <point x="140" y="426" type="line"/>
      <point x="120" y="426" type="line"/>
    </contour>
    <contour>
      <point x="230" y="50" type="line"/>
      <point x="250" y="50" type="line"/>
      <point x="250" y="550" type="line"/>
      <point x="230" y="550" type="line"/>
    </contour>
    <contour>
      <point x="122" y="414" type="line"/>
      <point x="135" y="424" type="line"/>
      <point x="23" y="550" type="line"/>
      <point x="10" y="539" type="line"/>
    </contour>
    <contour>
      <point x="15" y="533" type="line"/>
      <point x="250" y="533" type="line"/>
      <point x="250" y="550" type="line"/>
      <point x="15" y="550" type="line"/>
    </contour>
    <contour>
      <point x="137" y="414" type="line"/>
      <point x="249" y="539" type="line"/>
      <point x="236" y="550" type="line"/>
      <point x="124" y="424" type="line"/>
    </contour>
    <contour>
      <point x="428" y="311" type="line"/>
      <point x="591" y="550" type="line"/>
      <point x="571" y="550" type="line"/>
      <point x="413" y="321" type="line"/>
    </contour>
    <contour>
      <point x="372" y="533" type="line"/>
      <point x="577" y="533" type="line"/>
      <point x="577" y="550" type="line"/>
      <point x="380" y="550" type="line"/>
    </contour>
    <contour>
      <point x="250" y="317" type="line"/>
      <point x="400" y="548" type="line"/>
      <point x="380" y="550" type="line"/>
      <point x="243" y="337" type="line"/>
    </contour>
    <contour>
      <point x="586" y="50" type="line"/>
      <point x="434" y="324" type="line"/>
      <point x="417" y="316" type="line"/>
      <point x="562" y="55" type="line"/>
    </contour>
    <contour>
      <point x="342" y="61" type="line"/>
      <point x="251" y="240" type="line"/>
      <point x="246" y="209" type="line"/>
      <point x="326" y="50" type="line"/>
    </contour>
    <contour>
      <point x="405" y="95" type="line"/>
      <point x="560" y="55" type="line"/>
      <point x="572" y="71" type="line"/>
      <point x="414" y="112" type="line"/>
    </contour>
    <contour>
      <point x="326" y="50" type="line"/>
      <point x="586" y="50" type="line"/>
      <point x="567" y="68" type="line"/>
      <point x="326" y="68" type="line"/>
    </contour>
    <contour>
      <point x="340" y="60" type="line"/>
      <point x="420" y="96" type="line"/>
      <point x="408" y="112" type="line"/>
      <point x="320" y="71" type="line"/>
    </contour>
    <contour>
      <point x="423" y="102" type="line"/>
      <point x="332" y="273" type="line"/>
      <point x="309" y="274" type="line"/>
      <point x="406" y="92" type="line"/>
    </contour>
    <contour>
      <point x="333" y="270" type="line"/>
      <point x="463" y="462" type="line"/>
      <point x="444" y="467" type="line"/>
      <point x="317" y="277" type="line"/>
    </contour>
    <contour>
      <point x="440" y="441" type="line"/>
      <point x="575" y="528" type="line"/>
      <point x="574" y="549" type="line"/>
      <point x="446" y="465" type="line"/>
    </contour>
    <contour>
      <point x="424" y="329" type="line"/>
      <point x="322" y="282" type="line"/>
      <point x="323" y="264" type="line"/>
      <point x="435" y="314" type="line"/>
    </contour>
    <contour>
      <point x="377" y="539" type="line"/>
      <point x="440" y="451" type="line"/>
      <point x="454" y="462" type="line"/>
      <point x="396" y="544" type="line"/>
    </contour>
    <contour>
      <point x="320" y="281" type="line"/>
      <point x="238" y="235" type="line"/>
      <point x="251" y="222" type="line"/>
      <point x="329" y="266" type="line"/>
    </contour>
    <contour>
      <point x="318" y="266" type="line"/>
      <point x="331" y="280" type="line"/>
      <point x="244" y="339" type="line"/>
      <point x="240" y="317" type="line"/>
    </contour>
  </outline>
</glyph>
<glyph name="L" format="2">
  <advance width="455"/>
  <unicode hex="004C"/>
  <anchor x="230" y="50" name="bottom"/>
  <anchor x="130" y="300" name="center"/>
  <anchor x="130" y="550" name="top"/>
  <anchor x="335" y="550" name="topright"/>
  <outline>
    <contour>
      <point x="23" y="50" type="line"/>
      <point x="135" y="81" type="line"/>
      <point x="122" y="98" type="line"/>
      <point x="10" y="65" type="line"/>
    </contour>
    <contour>
      <point x="10" y="50" type="line"/>
      <point x="30" y="50" type="line"/>
      <point x="30" y="550" type="line"/>
      <point x="10" y="550" type="line"/>
    </contour>
    <contour>
      <point x="120" y="91" type="line"/>
      <point x="140" y="91" type="line"/>
      <point x="140" y="400" type="line"/>
      <point x="120" y="400" type="line"/>
    </contour>
    <contour>
      <point x="123" y="385" type="line"/>
      <point x="136" y="398" type="line"/>
      <point x="23" y="550" type="line"/>
      <point x="10" y="537" type="line"/>
    </contour>
    <contour>
      <point x="230" y="222" type="line"/>
      <point x="250" y="222" type="line"/>
      <point x="250" y="538" type="line"/>
      <point x="230" y="538" type="line"/>
    </contour>
    <contour>
      <point x="20" y="50" type="line"/>
      <point x="440" y="50" type="line"/>
      <point x="440" y="70" type="line"/>
      <point x="20" y="70" type="line"/>
    </contour>
    <contour>
      <point x="143" y="89" type="line"/>
      <point x="251" y="227" type="line"/>
      <point x="237" y="242" type="line"/>
      <point x="127" y="100" type="line"/>
    </contour>
    <contour>
      <point x="126" y="81" type="line"/>
      <point x="350" y="81" type="line"/>
      <point x="350" y="101" type="line"/>
      <point x="126" y="101" type="line"/>
    </contour>
    <contour>
      <point x="236" y="222" type="line"/>
      <point x="440" y="222" type="line"/>
      <point x="440" y="242" type="line"/>
      <point x="236" y="242" type="line"/>
    </contour>
    <contour>
      <point x="436" y="64" type="line"/>
      <point x="443" y="80" type="line"/>
      <point x="345" y="101" type="line"/>
      <point x="329" y="85" type="line"/>
    </contour>
    <contour>
      <point x="347" y="81" type="line"/>
      <point x="443" y="227" type="line"/>
      <point x="430" y="242" type="line"/>
      <point x="330" y="90" type="line"/>
    </contour>
    <contour>
      <point x="430" y="50" type="line"/>
      <point x="450" y="50" type="line"/>
      <point x="450" y="242" type="line"/>
      <point x="430" y="242" type="line"/>
    </contour>
    <contour>
      <point x="20" y="550" type="line"/>
      <point x="20" y="530" type="line"/>
      <point x="250" y="530" type="line"/>
      <point x="250" y="550" type="line"/>
    </contour>
    <contour>
      <point x="236" y="549" type="line"/>
      <point x="123" y="398" type="line"/>
      <point x="134" y="383" type="line"/>
      <point x="247" y="534" type="line"/>
    </contour>
  </outline>
</glyph>
<glyph name="M" format="2">
  <advance width="789"/>
  <unicode hex="004D"/>
  <anchor x="395" y="0" name="bottom"/>
  <anchor x="395" y="600" name="top"/>
  <outline>
    <contour>
      <point x="760" y="56" type="line"/>
      <point x="767" y="75" type="line"/>
      <point x="662" y="119" type="line"/>
      <point x="655" y="100" type="line"/>
    </contour>
    <contour>
      <point x="550" y="50" type="line"/>
      <point x="779" y="50" type="line"/>
      <point x="779" y="70" type="line"/>
      <point x="550" y="70" type="line"/>
    </contour>
    <contour>
      <point x="559" y="56" type="line"/>
      <point x="668" y="99" type="line"/>
      <point x="661" y="118" type="line"/>
      <point x="553" y="75" type="line"/>
    </contour>
    <contour>
      <point x="759" y="50" type="line"/>
      <point x="779" y="50" type="line"/>
      <point x="779" y="550" type="line"/>
      <point x="759" y="550" type="line"/>
    </contour>
    <contour>
      <point x="550" y="52" type="line"/>
      <point x="570" y="52" type="line"/>
      <point x="570" y="545" type="line"/>
      <point x="550" y="545" type="line"/>
    </contour>
    <contour>
      <point x="651" y="101" type="line"/>
      <point x="671" y="100" type="line"/>
      <point x="671" y="423" type="line"/>
      <point x="651" y="424" type="line"/>
    </contour>
    <contour>
      <point x="443" y="530" type="line"/>
      <point x="779" y="530" type="line"/>
      <point x="779" y="550" type="line"/>
      <point x="443" y="550" type="line"/>
    </contour>
    <contour>
      <point x="653" y="404" type="line"/>
      <point x="668" y="417" type="line"/>
      <point x="571" y="542" type="line"/>
      <point x="556" y="529" type="line"/>
    </contour>
    <contour>
      <point x="662" y="397" type="line"/>
      <point x="774" y="529" type="line"/>
      <point x="765" y="548" type="line"/>
      <point x="653" y="416" type="line"/>
    </contour>
    <contour>
      <point x="352" y="121" type="line"/>
      <point x="370" y="115" type="line"/>
      <point x="564" y="538" type="line"/>
      <point x="546" y="545" type="line"/>
    </contour>
    <contour>
      <point x="349" y="113" type="line"/>
      <point x="436" y="58" type="line"/>
      <point x="448" y="71" type="line"/>
      <point x="362" y="128" type="line"/>
    </contour>
    <contour>
      <point x="308" y="51" type="line"/>
      <point x="364" y="114" type="line"/>
      <point x="348" y="124" type="line"/>
      <point x="292" y="60" type="line"/>
    </contour>
    <contour>
      <point x="425" y="56" type="line"/>
      <point x="445" y="50" type="line"/>
      <point x="556" y="278" type="line"/>
      <point x="552" y="315" type="line"/>
    </contour>
    <contour>
      <point x="297" y="50" type="line"/>
      <point x="445" y="50" type="line"/>
      <point x="445" y="70" type="line"/>
      <point x="297" y="70" type="line"/>
    </contour>
    <contour>
      <point x="297" y="51" type="line"/>
      <point x="316" y="58" type="line"/>
      <point x="116" y="399" type="line"/>
      <point x="98" y="392" type="line"/>
    </contour>
    <contour>
      <point x="351" y="110" type="line"/>
      <point x="371" y="116" type="line"/>
      <point x="181" y="467" type="line"/>
      <point x="167" y="451" type="line"/>
    </contour>
    <contour>
      <point x="307" y="214" type="line"/>
      <point x="461" y="544" type="line"/>
      <point x="443" y="550" type="line"/>
      <point x="295" y="234" type="line"/>
    </contour>
    <contour>
      <point x="11" y="530" type="line"/>
      <point x="247" y="530" type="line"/>
      <point x="247" y="550" type="line"/>
      <point x="11" y="550" type="line"/>
    </contour>
    <contour>
      <point x="10" y="50" type="line"/>
      <point x="31" y="50" type="line"/>
      <point x="31" y="550" type="line"/>
      <point x="10" y="550" type="line"/>
    </contour>
    <contour>
      <point x="86" y="97" type="line"/>
      <point x="107" y="96" type="line"/>
      <point x="107" y="394" type="line"/>
      <point x="86" y="414" type="line"/>
    </contour>
    <contour>
      <point x="166" y="50" type="line"/>
      <point x="185" y="50" type="line"/>
      <point x="185" y="263" type="line"/>
      <point x="166" y="293" type="line"/>
    </contour>
    <contour>
      <point x="349" y="334" type="line"/>
      <point x="359" y="356" type="line"/>
      <point x="247" y="549" type="line"/>
      <point x="227" y="545" type="line"/>
    </contour>
    <contour>
      <point x="33" y="64" type="line"/>
      <point x="105" y="98" type="line"/>
      <point x="93" y="113" type="line"/>
      <point x="21" y="79" type="line"/>
    </contour>
    <contour>
      <point x="168" y="64" type="line"/>
      <point x="179" y="81" type="line"/>
      <point x="102" y="111" type="line"/>
      <point x="91" y="94" type="line"/>
    </contour>
    <contour>
      <point x="12" y="50" type="line"/>
      <point x="185" y="50" type="line"/>
      <point x="185" y="70" type="line"/>
      <point x="12" y="70" type="line"/>
    </contour>
    <contour>
      <point x="99" y="386" type="line"/>
      <point x="114" y="398" type="line"/>
      <point x="26" y="548" type="line"/>
      <point x="12" y="532" type="line"/>
    </contour>
    <contour>
      <point x="111" y="379" type="line"/>
      <point x="249" y="535" type="line"/>
      <point x="230" y="543" type="line"/>
      <point x="91" y="387" type="line"/>
    </contour>
  </outline>
</glyph>
<glyph name="N" format="2">
  <advance width="631"/>
  <unicode hex="004E"/>
  <anchor x="316" y="50" name="bottom"/>
  <anchor x="316" y="550" name="top"/>
  <outline>
    <contour>
      <point x="10" y="50" type="line"/>
      <point x="30" y="50" type="line"/>
      <point x="30" y="550" type="line"/>
      <point x="10" y="550" type="line"/>
    </contour>
    <contour>
      <point x="172" y="50" type="line"/>
      <point x="192" y="50" type="line"/>
      <point x="192" y="359" type="line"/>
      <point x="172" y="395" type="line"/>
    </contour>
    <contour>
      <point x="601" y="50" type="line"/>
      <point x="621" y="50" type="line"/>
      <point x="621" y="550" type="line"/>
      <point x="601" y="550" type="line"/>
    </contour>
    <contour>
      <point x="510" y="90" type="line"/>
      <point x="530" y="87" type="line"/>
      <point x="530" y="459" type="line"/>
      <point x="510" y="459" type="line"/>
    </contour>
    <contour>
      <point x="605" y="68" type="line"/>
      <point x="615" y="84" type="line"/>
      <point x="478" y="104" type="line"/>
      <point x="468" y="88" type="line"/>
    </contour>
    <contour>
      <point x="352" y="66" type="line"/>
      <point x="495" y="88" type="line"/>
      <point x="478" y="104" type="line"/>
      <point x="342" y="82" type="line"/>
    </contour>
    <contour>
      <point x="24" y="59" type="line"/>
      <point x="105" y="91" type="line"/>
      <point x="92" y="104" type="line"/>
      <point x="11" y="72" type="line"/>
    </contour>
    <contour>
      <point x="179" y="61" type="line"/>
      <point x="191" y="75" type="line"/>
      <point x="102" y="102" type="line"/>
      <point x="91" y="88" type="line"/>
    </contour>
    <contour>
      <point x="340" y="50" type="line"/>
      <point x="619" y="50" type="line"/>
      <point x="619" y="70" type="line"/>
      <point x="340" y="70" type="line"/>
    </contour>
    <contour>
      <point x="339" y="50" type="line"/>
      <point x="358" y="58" type="line"/>
      <point x="110" y="539" type="line"/>
      <point x="92" y="531" type="line"/>
    </contour>
    <contour>
      <point x="11" y="50" type="line"/>
      <point x="192" y="50" type="line"/>
      <point x="192" y="70" type="line"/>
      <point x="11" y="70" type="line"/>
    </contour>
    <contour>
      <point x="10" y="530" type="line"/>
      <point x="334" y="530" type="line"/>
      <point x="334" y="550" type="line"/>
      <point x="10" y="550" type="line"/>
    </contour>
    <contour>
      <point x="284" y="417" type="line"/>
      <point x="337" y="531" type="line"/>
      <point x="324" y="547" type="line"/>
      <point x="271" y="433" type="line"/>
    </contour>
    <contour>
      <point x="453" y="277" type="line"/>
      <point x="453" y="314" type="line"/>
      <point x="334" y="550" type="line"/>
      <point x="316" y="545" type="line"/>
    </contour>
    <contour>
      <point x="440" y="91" type="line"/>
      <point x="460" y="92" type="line"/>
      <point x="460" y="550" type="line"/>
      <point x="440" y="550" type="line"/>
    </contour>
    <contour>
      <point x="85" y="93" type="line"/>
      <point x="105" y="93" type="line"/>
      <point x="105" y="532" type="line"/>
      <point x="85" y="532" type="line"/>
    </contour>
    <contour>
      <point x="440" y="530" type="line"/>
      <point x="621" y="530" type="line"/>
      <point x="621" y="550" type="line"/>
      <point x="440" y="550" type="line"/>
    </contour>
    <contour>
      <point x="521" y="439" type="line"/>
      <point x="615" y="536" type="line"/>
      <point x="599" y="547" type="line"/>
      <point x="507" y="453" type="line"/>
    </contour>
    <contour>
      <point x="437" y="90" type="line"/>
      <point x="456" y="96" type="line"/>
      <point x="282" y="437" type="line"/>
      <point x="264" y="429" type="line"/>
    </contour>
    <contour>
      <point x="273" y="418" type="line"/>
      <point x="284" y="433" type="line"/>
      <point x="104" y="550" type="line"/>
      <point x="93" y="535" type="line"/>
    </contour>
    <contour>
      <point x="521" y="436" type="line"/>
      <point x="531" y="454" type="line"/>
      <point x="454" y="547" type="line"/>
      <point x="441" y="532" type="line"/>
    </contour>
  </outline>
</glyph>
<glyph name="O" format="2">
  <advance width="530"/>
  <unicode hex="004F"/>
  <anchor x="265" y="0" name="bottom"/>
  <anchor x="265" y="300" name="center"/>
  <anchor x="376" y="68" name="ogonek"/>
  <anchor x="265" y="550" name="top"/>
  <anchor x="20" y="550" name="topleft"/>
  <anchor x="510" y="550" name="topright"/>
  <outline>
    <contour>
      <point x="145" y="50" type="line"/>
      <point x="159" y="64" type="line"/>
      <point x="19" y="194" type="line"/>
      <point x="5" y="180" type="line"/>
    </contour>
    <contour>
      <point x="25" y="177" type="line"/>
      <point x="108" y="189" type="line"/>
      <point x="102" y="206" type="line"/>
      <point x="19" y="194" type="line"/>
    </contour>
    <contour>
      <point x="157" y="59" type="line"/>
      <point x="205" y="93" type="line"/>
      <point x="190" y="102" type="line"/>
      <point x="142" y="68" type="line"/>
    </contour>
    <contour>
      <point x="145" y="50" type="line"/>
      <point x="385" y="50" type="line"/>
      <point x="385" y="68" type="line"/>
      <point x="145" y="68" type="line"/>
    </contour>
    <contour>
      <point x="190" y="88" type="line"/>
      <point x="204" y="100" type="line"/>
      <point x="109" y="209" type="line"/>
      <point x="95" y="195" type="line"/>
    </contour>
    <contour>
      <point x="5" y="180" type="line"/>
      <point x="25" y="180" type="line"/>
      <point x="25" y="410" type="line"/>
      <point x="5" y="410" type="line"/>
    </contour>
    <contour>
      <point x="110" y="191" type="line"/>
      <point x="235" y="238" type="line"/>
      <point x="229" y="254" type="line"/>
      <point x="104" y="207" type="line"/>
    </contour>
    <contour>
      <point x="190" y="88" type="line"/>
      <point x="340" y="88" type="line"/>
      <point x="340" y="106" type="line"/>
      <point x="190" y="106" type="line"/>
    </contour>
    <contour>
      <point x="203" y="91" type="line"/>
      <point x="260" y="217" type="line"/>
      <point x="247" y="227" type="line"/>
      <point x="187" y="98" type="line"/>
    </contour>
    <contour>
      <point x="373" y="59" type="line"/>
      <point x="388" y="68" type="line"/>
      <point x="340" y="102" type="line"/>
      <point x="325" y="93" type="line"/>
    </contour>
    <contour>
      <point x="95" y="195" type="line"/>
      <point x="115" y="195" type="line"/>
      <point x="115" y="335" type="line"/>
      <point x="95" y="335" type="line"/>
    </contour>
    <contour>
      <point x="247" y="209" type="line"/>
      <point x="261" y="223" type="line"/>
      <point x="229" y="254" type="line"/>
      <point x="215" y="240" type="line"/>
    </contour>
    <contour>
      <point x="247" y="209" type="line"/>
      <point x="283" y="209" type="line"/>
      <point x="283" y="227" type="line"/>
      <point x="247" y="227" type="line"/>
    </contour>
    <contour>
      <point x="330" y="88" type="line"/>
      <point x="343" y="98" type="line"/>
      <point x="283" y="227" type="line"/>
      <point x="270" y="217" type="line"/>
    </contour>
    <contour>
      <point x="283" y="209" type="line"/>
      <point x="315" y="240" type="line"/>
      <point x="301" y="254" type="line"/>
      <point x="269" y="223" type="line"/>
    </contour>
    <contour>
      <point x="102" y="324" type="line"/>
      <point x="108" y="341" type="line"/>
      <point x="25" y="413" type="line"/>
      <point x="19" y="396" type="line"/>
    </contour>
    <contour>
      <point x="340" y="84" type="line"/>
      <point x="435" y="195" type="line"/>
      <point x="421" y="209" type="line"/>
      <point x="326" y="98" type="line"/>
    </contour>
    <contour>
      <point x="215" y="240" type="line"/>
      <point x="235" y="240" type="line"/>
      <point x="235" y="362" type="line"/>
      <point x="215" y="362" type="line"/>
    </contour>
    <contour>
      <point x="385" y="50" type="line"/>
      <point x="525" y="180" type="line"/>
      <point x="511" y="194" type="line"/>
      <point x="371" y="64" type="line"/>
    </contour>
    <contour>
      <point x="420" y="191" type="line"/>
      <point x="426" y="207" type="line"/>
      <point x="301" y="254" type="line"/>
      <point x="295" y="238" type="line"/>
    </contour>
    <contour>
      <point x="235" y="351" type="line"/>
      <point x="229" y="369" type="line"/>
      <point x="115" y="337" type="line"/>
      <point x="109" y="321" type="line"/>
    </contour>
    <contour>
      <point x="295" y="240" type="line"/>
      <point x="315" y="240" type="line"/>
      <point x="315" y="366" type="line"/>
      <point x="295" y="366" type="line"/>
    </contour>
    <contour>
      <point x="19" y="396" type="line"/>
      <point x="159" y="536" type="line"/>
      <point x="145" y="550" type="line"/>
      <point x="5" y="410" type="line"/>
    </contour>
    <contour>
      <point x="109" y="321" type="line"/>
      <point x="204" y="412" type="line"/>
      <point x="190" y="426" type="line"/>
      <point x="95" y="335" type="line"/>
    </contour>
    <contour>
      <point x="505" y="177" type="line"/>
      <point x="511" y="194" type="line"/>
      <point x="428" y="206" type="line"/>
      <point x="422" y="189" type="line"/>
    </contour>
    <contour>
      <point x="229" y="348" type="line"/>
      <point x="261" y="372" type="line"/>
      <point x="247" y="386" type="line"/>
      <point x="215" y="362" type="line"/>
    </contour>
    <contour>
      <point x="241" y="368" type="line"/>
      <point x="289" y="368" type="line"/>
      <point x="289" y="386" type="line"/>
      <point x="241" y="386" type="line"/>
    </contour>
    <contour>
      <point x="247" y="368" type="line"/>
      <point x="262" y="378" type="line"/>
      <point x="200" y="420" type="line"/>
      <point x="185" y="410" type="line"/>
    </contour>
    <contour>
      <point x="301" y="356" type="line"/>
      <point x="315" y="363" type="line"/>
      <point x="283" y="386" type="line"/>
      <point x="269" y="372" type="line"/>
    </contour>
    <contour>
      <point x="415" y="195" type="line"/>
      <point x="435" y="195" type="line"/>
      <point x="435" y="335" type="line"/>
      <point x="415" y="335" type="line"/>
    </contour>
    <contour>
      <point x="186" y="409" type="line"/>
      <point x="203" y="415" type="line"/>
      <point x="161" y="536" type="line"/>
      <point x="144" y="530" type="line"/>
    </contour>
    <contour>
      <point x="283" y="368" type="line"/>
      <point x="345" y="410" type="line"/>
      <point x="330" y="420" type="line"/>
      <point x="268" y="378" type="line"/>
    </contour>
    <contour>
      <point x="301" y="356" type="line"/>
      <point x="421" y="318" type="line"/>
      <point x="415" y="337" type="line"/>
      <point x="295" y="377" type="line"/>
    </contour>
    <contour>
      <point x="190" y="408" type="line"/>
      <point x="340" y="408" type="line"/>
      <point x="340" y="426" type="line"/>
      <point x="190" y="426" type="line"/>
    </contour>
    <contour>
      <point x="505" y="180" type="line"/>
      <point x="525" y="180" type="line"/>
      <point x="525" y="410" type="line"/>
      <point x="505" y="410" type="line"/>
    </contour>
    <contour>
      <point x="421" y="321" type="line"/>
      <point x="435" y="335" type="line"/>
      <point x="340" y="426" type="line"/>
      <point x="326" y="412" type="line"/>
    </contour>
    <contour>
      <point x="145" y="532" type="line"/>
      <point x="385" y="532" type="line"/>
      <point x="385" y="550" type="line"/>
      <point x="145" y="550" type="line"/>
    </contour>
    <contour>
      <point x="344" y="409" type="line"/>
      <point x="386" y="530" type="line"/>
      <point x="369" y="536" type="line"/>
      <point x="327" y="415" type="line"/>
    </contour>
    <contour>
      <point x="428" y="324" type="line"/>
      <point x="511" y="396" type="line"/>
      <point x="505" y="413" type="line"/>
      <point x="422" y="341" type="line"/>
    </contour>
    <contour>
      <point x="511" y="396" type="line"/>
      <point x="525" y="410" type="line"/>
      <point x="385" y="550" type="line"/>
      <point x="371" y="536" type="line"/>
    </contour>
  </outline>
</glyph>
<glyph name="P" format="2">
  <advance width="571"/>
  <unicode hex="0050"/>
  <anchor x="278" y="50" name="bottom"/>
  <anchor x="278" y="550" name="top"/>
  <outline>
    <contour>
      <point x="10" y="548" type="line"/>
      <point x="10" y="50" type="line"/>
      <point x="30" y="50" type="line"/>
      <point x="30" y="548" type="line"/>
    </contour>
    <contour>
      <point x="228" y="208" type="line"/>
      <point x="228" y="50" type="line"/>
      <point x="248" y="50" type="line"/>
      <point x="248" y="208" type="line"/>
    </contour>
    <contour>
      <point x="241" y="70" type="line"/>
      <point x="15" y="70" type="line"/>
      <point x="14" y="50" type="line"/>
      <point x="241" y="50" type="line"/>
    </contour>
    <contour>
      <point x="409" y="215" type="line"/>
      <point x="228" y="215" type="line"/>
      <point x="228" y="195" type="line"/>
      <point x="409" y="195" type="line"/>
    </contour>
    <contour>
      <point x="409" y="549" type="line"/>
      <point x="10" y="549" type="line"/>
      <point x="10" y="529" type="line"/>
      <point x="409" y="529" type="line"/>
    </contour>
    <contour>
      <point x="226" y="392" type="line"/>
      <point x="226" y="334" type="line"/>
      <point x="246" y="334" type="line"/>
      <point x="246" y="392" type="line"/>
    </contour>
    <contour>
      <point x="434" y="375" type="line"/>
      <point x="434" y="292" type="line"/>
      <point x="453" y="290" type="line"/>
      <point x="453" y="373" type="line"/>
    </contour>
    <contour>
      <point x="23" y="50" type="line"/>
      <point x="135" y="109" type="line"/>
      <point x="122" y="122" type="line"/>
      <point x="10" y="63" type="line"/>
    </contour>
    <contour>
      <point x="238" y="50" type="line"/>
      <point x="248" y="63" type="line"/>
      <point x="138" y="122" type="line"/>
      <point x="125" y="109" type="line"/>
    </contour>
    <contour>
      <point x="120" y="107" type="line"/>
      <point x="140" y="107" type="line"/>
      <point x="140" y="421" type="line"/>
      <point x="120" y="424" type="line"/>
    </contour>
    <contour>
      <point x="236" y="377" type="line"/>
      <point x="241" y="395" type="line"/>
      <point x="143" y="421" type="line"/>
      <point x="125" y="408" type="line"/>
    </contour>
    <contour>
      <point x="238" y="194" type="line"/>
      <point x="261" y="209" type="line"/>
      <point x="143" y="244" type="line"/>
      <point x="134" y="226" type="line"/>
    </contour>
    <contour>
      <point x="334" y="417" type="line"/>
      <point x="356" y="416" type="line"/>
      <point x="411" y="536" type="line"/>
      <point x="397" y="544" type="line"/>
    </contour>
    <contour>
      <point x="337" y="421" type="line"/>
      <point x="444" y="357" type="line"/>
      <point x="453" y="373" type="line"/>
      <point x="356" y="432" type="line"/>
    </contour>
    <contour>
      <point x="395" y="535" type="line"/>
      <point x="554" y="432" type="line"/>
      <point x="566" y="446" type="line"/>
      <point x="409" y="549" type="line"/>
    </contour>
    <contour>
      <point x="448" y="359" type="line"/>
      <point x="565" y="432" type="line"/>
      <point x="555" y="447" type="line"/>
      <point x="437" y="375" type="line"/>
    </contour>
    <contour>
      <point x="546" y="446" type="line"/>
      <point x="546" y="309" type="line"/>
      <point x="566" y="309" type="line"/>
      <point x="566" y="446" type="line"/>
    </contour>
    <contour>
      <point x="396" y="213" type="line"/>
      <point x="409" y="195" type="line"/>
      <point x="566" y="309" type="line"/>
      <point x="555" y="325" type="line"/>
    </contour>
    <contour>
      <point x="447" y="305" type="line"/>
      <point x="436" y="283" type="line"/>
      <point x="558" y="305" type="line"/>
      <point x="558" y="324" type="line"/>
    </contour>
    <contour>
      <point x="339" y="236" type="line"/>
      <point x="404" y="198" type="line"/>
      <point x="414" y="213" type="line"/>
      <point x="363" y="242" type="line"/>
    </contour>
    <contour>
      <point x="347" y="241" type="line"/>
      <point x="362" y="228" type="line"/>
      <point x="456" y="292" type="line"/>
      <point x="446" y="311" type="line"/>
    </contour>
    <contour>
      <point x="362" y="247" type="line"/>
      <point x="140" y="247" type="line"/>
      <point x="140" y="227" type="line"/>
      <point x="362" y="227" type="line"/>
    </contour>
    <contour>
      <point x="347" y="432" type="line"/>
      <point x="124" y="432" type="line"/>
      <point x="124" y="412" type="line"/>
      <point x="347" y="412" type="line"/>
    </contour>
    <contour>
      <point x="228" y="347" type="line"/>
      <point x="128" y="251" type="line"/>
      <point x="139" y="235" type="line"/>
      <point x="245" y="341" type="line"/>
    </contour>
    <contour>
      <point x="302" y="344" type="line"/>
      <point x="346" y="235" type="line"/>
      <point x="362" y="243" type="line"/>
      <point x="318" y="345" type="line"/>
    </contour>
    <contour>
      <point x="318" y="350" type="line"/>
      <point x="235" y="350" type="line"/>
      <point x="235" y="333" type="line"/>
      <point x="318" y="333" type="line"/>
    </contour>
    <contour>
      <point x="312" y="397" type="line"/>
      <point x="227" y="397" type="line"/>
      <point x="227" y="378" type="line"/>
      <point x="312" y="378" type="line"/>
    </contour>
    <contour>
      <point x="290" y="383" type="line"/>
      <point x="316" y="383" type="line"/>
      <point x="362" y="423" type="line"/>
      <point x="343" y="427" type="line"/>
    </contour>
    <contour>
      <point x="331" y="373" type="line"/>
      <point x="331" y="360" type="line"/>
      <point x="350" y="360" type="line"/>
      <point x="350" y="372" type="line"/>
    </contour>
    <contour>
      <point x="345" y="360" type="line"/>
      <point x="444" y="361" type="line"/>
      <point x="441" y="377" type="line"/>
      <point x="340" y="376" type="line"/>
    </contour>
    <contour>
      <point x="343" y="366" type="line"/>
      <point x="326" y="356" type="line"/>
      <point x="448" y="286" type="line"/>
      <point x="456" y="302" type="line"/>
    </contour>
    <contour>
      <point x="302" y="344" type="line"/>
      <point x="315" y="331" type="line"/>
      <point x="353" y="355" type="line"/>
      <point x="339" y="370" type="line"/>
    </contour>
    <contour>
      <point x="295" y="380" type="line"/>
      <point x="340" y="362" type="line"/>
      <point x="359" y="371" type="line"/>
      <point x="312" y="397" type="line"/>
    </contour>
    <contour>
      <point x="125" y="408" type="line"/>
      <point x="133" y="431" type="line"/>
      <point x="36" y="537" type="line"/>
      <point x="20" y="524" type="line"/>
    </contour>
  </outline>
</glyph>
<glyph name="Q" format="2">
  <advance width="530"/>
  <unicode hex="0051"/>
  <outline>
    <contour>
      <point x="145" y="50" type="line"/>
      <point x="159" y="64" type="line"/>
      <point x="19" y="194" type="line"/>
      <point x="5" y="180" type="line"/>
    </contour>
    <contour>
      <point x="25" y="177" type="line"/>
      <point x="108" y="189" type="line"/>
      <point x="102" y="206" type="line"/>
      <point x="19" y="194" type="line"/>
    </contour>
    <contour>
      <point x="157" y="59" type="line"/>
      <point x="207" y="93" type="line"/>
      <point x="192" y="102" type="line"/>
      <point x="142" y="68" type="line"/>
    </contour>
    <contour>
      <point x="145" y="50" type="line"/>
      <point x="234" y="50" type="line"/>
      <point x="234" y="68" type="line"/>
      <point x="145" y="68" type="line"/>
    </contour>
    <contour>
      <point x="190" y="89" type="line"/>
      <point x="204" y="103" type="line"/>
      <point x="109" y="209" type="line"/>
      <point x="95" y="195" type="line"/>
    </contour>
    <contour>
      <point x="5" y="180" type="line"/>
      <point x="25" y="180" type="line"/>
      <point x="25" y="410" type="line"/>
      <point x="5" y="410" type="line"/>
    </contour>
    <contour>
      <point x="110" y="191" type="line"/>
      <point x="235" y="238" type="line"/>
      <point x="229" y="254" type="line"/>
      <point x="104" y="207" type="line"/>
    </contour>
    <contour>
      <point x="190" y="89" type="line"/>
      <point x="340" y="89" type="line"/>
      <point x="340" y="107" type="line"/>
      <point x="190" y="107" type="line"/>
    </contour>
    <contour>
      <point x="200" y="93" type="line"/>
      <point x="260" y="217" type="line"/>
      <point x="247" y="227" type="line"/>
      <point x="187" y="103" type="line"/>
    </contour>
    <contour>
      <point x="371" y="34" type="line"/>
      <point x="380" y="52" type="line"/>
      <point x="340" y="107" type="line"/>
      <point x="325" y="98" type="line"/>
    </contour>
    <contour>
      <point x="95" y="195" type="line"/>
      <point x="115" y="195" type="line"/>
      <point x="115" y="335" type="line"/>
      <point x="95" y="335" type="line"/>
    </contour>
    <contour>
      <point x="247" y="209" type="line"/>
      <point x="261" y="223" type="line"/>
      <point x="229" y="254" type="line"/>
      <point x="215" y="240" type="line"/>
    </contour>
    <contour>
      <point x="247" y="209" type="line"/>
      <point x="283" y="209" type="line"/>
      <point x="283" y="227" type="line"/>
      <point x="247" y="227" type="line"/>
    </contour>
    <contour>
      <point x="330" y="93" type="line"/>
      <point x="343" y="103" type="line"/>
      <point x="283" y="227" type="line"/>
      <point x="270" y="217" type="line"/>
    </contour>
    <contour>
      <point x="283" y="209" type="line"/>
      <point x="315" y="240" type="line"/>
      <point x="301" y="254" type="line"/>
      <point x="269" y="223" type="line"/>
    </contour>
    <contour>
      <point x="102" y="318" type="line"/>
      <point x="108" y="338" type="line"/>
      <point x="25" y="413" type="line"/>
      <point x="19" y="396" type="line"/>
    </contour>
    <contour>
      <point x="340" y="89" type="line"/>
      <point x="435" y="195" type="line"/>
      <point x="421" y="209" type="line"/>
      <point x="326" y="103" type="line"/>
    </contour>
    <contour>
      <point x="215" y="240" type="line"/>
      <point x="235" y="240" type="line"/>
      <point x="235" y="364" type="line"/>
      <point x="215" y="364" type="line"/>
    </contour>
    <contour>
      <point x="371" y="34" type="line"/>
      <point x="525" y="180" type="line"/>
      <point x="511" y="194" type="line"/>
      <point x="367" y="58" type="line"/>
    </contour>
    <contour>
      <point x="420" y="191" type="line"/>
      <point x="426" y="207" type="line"/>
      <point x="301" y="254" type="line"/>
      <point x="295" y="238" type="line"/>
    </contour>
    <contour>
      <point x="224" y="352" type="line"/>
      <point x="230" y="372" type="line"/>
      <point x="115" y="337" type="line"/>
      <point x="109" y="317" type="line"/>
    </contour>
    <contour>
      <point x="295" y="240" type="line"/>
      <point x="315" y="240" type="line"/>
      <point x="315" y="365" type="line"/>
      <point x="295" y="365" type="line"/>
    </contour>
    <contour>
      <point x="19" y="396" type="line"/>
      <point x="159" y="536" type="line"/>
      <point x="145" y="550" type="line"/>
      <point x="5" y="410" type="line"/>
    </contour>
    <contour>
      <point x="109" y="320" type="line"/>
      <point x="204" y="412" type="line"/>
      <point x="190" y="426" type="line"/>
      <point x="95" y="335" type="line"/>
    </contour>
    <contour>
      <point x="505" y="177" type="line"/>
      <point x="511" y="194" type="line"/>
      <point x="428" y="206" type="line"/>
      <point x="422" y="189" type="line"/>
    </contour>
    <contour>
      <point x="229" y="353" type="line"/>
      <point x="261" y="372" type="line"/>
      <point x="247" y="386" type="line"/>
      <point x="215" y="365" type="line"/>
    </contour>
    <contour>
      <point x="247" y="368" type="line"/>
      <point x="283" y="368" type="line"/>
      <point x="283" y="386" type="line"/>
      <point x="247" y="386" type="line"/>
    </contour>
    <contour>
      <point x="247" y="368" type="line"/>
      <point x="262" y="378" type="line"/>
      <point x="200" y="420" type="line"/>
      <point x="185" y="410" type="line"/>
    </contour>
    <contour>
      <point x="301" y="353" type="line"/>
      <point x="315" y="365" type="line"/>
      <point x="283" y="386" type="line"/>
      <point x="269" y="372" type="line"/>
    </contour>
    <contour>
      <point x="415" y="195" type="line"/>
      <point x="435" y="195" type="line"/>
      <point x="435" y="335" type="line"/>
      <point x="415" y="335" type="line"/>
    </contour>
    <contour>
      <point x="186" y="409" type="line"/>
      <point x="203" y="415" type="line"/>
      <point x="161" y="536" type="line"/>
      <point x="144" y="530" type="line"/>
    </contour>
    <contour>
      <point x="282" y="372" type="line"/>
      <point x="345" y="410" type="line"/>
      <point x="330" y="420" type="line"/>
      <point x="267" y="382" type="line"/>
    </contour>
    <contour>
      <point x="304" y="352" type="line"/>
      <point x="421" y="317" type="line"/>
      <point x="415" y="337" type="line"/>
      <point x="298" y="372" type="line"/>
    </contour>
    <contour>
      <point x="190" y="408" type="line"/>
      <point x="340" y="408" type="line"/>
      <point x="340" y="426" type="line"/>
      <point x="190" y="426" type="line"/>
    </contour>
    <contour>
      <point x="505" y="180" type="line"/>
      <point x="525" y="180" type="line"/>
      <point x="525" y="410" type="line"/>
      <point x="505" y="410" type="line"/>
    </contour>
    <contour>
      <point x="421" y="320" type="line"/>
      <point x="435" y="335" type="line"/>
      <point x="340" y="426" type="line"/>
      <point x="326" y="412" type="line"/>
    </contour>
    <contour>
      <point x="145" y="532" type="line"/>
      <point x="385" y="532" type="line"/>
      <point x="385" y="550" type="line"/>
      <point x="145" y="550" type="line"/>
    </contour>
    <contour>
      <point x="344" y="409" type="line"/>
      <point x="386" y="530" type="line"/>
      <point x="369" y="536" type="line"/>
      <point x="327" y="415" type="line"/>
    </contour>
    <contour>
      <point x="428" y="324" type="line"/>
      <point x="511" y="396" type="line"/>
      <point x="505" y="413" type="line"/>
      <point x="422" y="341" type="line"/>
    </contour>
    <contour>
      <point x="511" y="396" type="line"/>
      <point x="525" y="410" type="line"/>
      <point x="385" y="550" type="line"/>
      <point x="371" y="536" type="line"/>
    </contour>
    <contour>
      <point x="222" y="51" type="line"/>
      <point x="337" y="93" type="line"/>
      <point x="320" y="104" type="line"/>
      <point x="205" y="62" type="line"/>
    </contour>
    <contour>
      <point x="300" y="-28" type="line"/>
      <point x="395" y="-28" type="line"/>
      <point x="395" y="-10" type="line"/>
      <point x="300" y="-10" type="line"/>
    </contour>
    <contour>
      <point x="385" y="-28" type="line"/>
      <point x="405" y="-28" type="line"/>
      <point x="405" y="70" type="line"/>
      <point x="385" y="70" type="line"/>
    </contour>
    <contour>
      <point x="300" y="-28" type="line"/>
      <point x="315" y="-17" type="line"/>
      <point x="227" y="66" type="line"/>
      <point x="211" y="56" type="line"/>
    </contour>
    <contour>
      <point x="385" y="-20" type="line"/>
      <point x="398" y="-9" type="line"/>
      <point x="302" y="58" type="line"/>
      <point x="291" y="44" type="line"/>
    </contour>
    <contour>
      <point x="225" y="50" type="line"/>
      <point x="301" y="39" type="line"/>
      <point x="302" y="57" type="line"/>
      <point x="226" y="67" type="line"/>
    </contour>
    <contour>
      <point x="289" y="50" type="line"/>
      <point x="306" y="47" type="line"/>
      <point x="338" y="100" type="line"/>
      <point x="322" y="99" type="line"/>
    </contour>
  </outline>
</glyph>
<glyph name="U" format="2">
  <advance width="525"/>
  <unicode hex="0055"/>
  <anchor x="260" y="50" name="bottom"/>
  <anchor x="340" y="68" name="ogonek"/>
  <anchor x="260" y="550" name="top"/>
  <anchor x="500" y="550" name="topright"/>
  <outline>
    <contour>
      <point x="5" y="550" type="line"/>
      <point x="5" y="233" type="line"/>
      <point x="25" y="233" type="line"/>
      <point x="25" y="550" type="line"/>
    </contour>
    <contour>
      <point x="225" y="550" type="line"/>
      <point x="225" y="263" type="line"/>
      <point x="245" y="263" type="line"/>
      <point x="245" y="550" type="line"/>
    </contour>
    <contour>
      <point x="335" y="550" type="line"/>
      <point x="335" y="263" type="line"/>
      <point x="355" y="263" type="line"/>
      <point x="355" y="550" type="line"/>
    </contour>
    <contour>
      <point x="495" y="550" type="line"/>
      <point x="495" y="234" type="line"/>
      <point x="515" y="234" type="line"/>
      <point x="515" y="550" type="line"/>
    </contour>
    <contour>
      <point x="5" y="550" type="line"/>
      <point x="5" y="530" type="line"/>
      <point x="245" y="530" type="line"/>
      <point x="245" y="550" type="line"/>
    </contour>
    <contour>
      <point x="335" y="550" type="line"/>
      <point x="335" y="530" type="line"/>
      <point x="515" y="530" type="line"/>
      <point x="515" y="550" type="line"/>
    </contour>
    <contour>
      <point x="170" y="70" type="line"/>
      <point x="170" y="50" type="line"/>
      <point x="350" y="50" type="line"/>
      <point x="350" y="70" type="line"/>
    </contour>
    <contour>
      <point x="5" y="234" type="line"/>
      <point x="170" y="50" type="line"/>
      <point x="185" y="63" type="line"/>
      <point x="20" y="248" type="line"/>
    </contour>
    <contour>
      <point x="335" y="63" type="line"/>
      <point x="350" y="50" type="line"/>
      <point x="515" y="234" type="line"/>
      <point x="500" y="248" type="line"/>
    </contour>
    <contour>
      <point x="110" y="396" type="line"/>
      <point x="110" y="198" type="line"/>
      <point x="130" y="198" type="line"/>
      <point x="130" y="396" type="line"/>
    </contour>
    <contour>
      <point x="415" y="410" type="line"/>
      <point x="415" y="204" type="line"/>
      <point x="435" y="204" type="line"/>
      <point x="435" y="410" type="line"/>
    </contour>
    <contour>
      <point x="227" y="545" type="line"/>
      <point x="110" y="396" type="line"/>
      <point x="122" y="380" type="line"/>
      <point x="239" y="529" type="line"/>
    </contour>
    <contour>
      <point x="119" y="380" type="line"/>
      <point x="131" y="396" type="line"/>
      <point x="21" y="547" type="line"/>
      <point x="9" y="531" type="line"/>
    </contour>
    <contour>
      <point x="253" y="232" type="line"/>
      <point x="253" y="212" type="line"/>
      <point x="330" y="212" type="line"/>
      <point x="330" y="232" type="line"/>
    </contour>
    <contour>
      <point x="215" y="110" type="line"/>
      <point x="215" y="90" type="line"/>
      <point x="341" y="90" type="line"/>
      <point x="341" y="110" type="line"/>
    </contour>
    <contour>
      <point x="499" y="548" type="line"/>
      <point x="417" y="411" type="line"/>
      <point x="429" y="395" type="line"/>
      <point x="511" y="532" type="line"/>
    </contour>
    <contour>
      <point x="423" y="392" type="line"/>
      <point x="435" y="408" type="line"/>
      <point x="351" y="547" type="line"/>
      <point x="339" y="531" type="line"/>
    </contour>
    <contour>
      <point x="6" y="253" type="line"/>
      <point x="6" y="233" type="line"/>
      <point x="130" y="183" type="line"/>
      <point x="130" y="203" type="line"/>
    </contour>
    <contour>
      <point x="211" y="103" type="line"/>
      <point x="159" y="67" type="line"/>
      <point x="175" y="56" type="line"/>
      <point x="228" y="92" type="line"/>
    </contour>
    <contour>
      <point x="252" y="230" type="line"/>
      <point x="213" y="106" type="line"/>
      <point x="229" y="95" type="line"/>
      <point x="269" y="219" type="line"/>
    </contour>
    <contour>
      <point x="335" y="59" type="line"/>
      <point x="354" y="64" type="line"/>
      <point x="346" y="107" type="line"/>
      <point x="327" y="102" type="line"/>
    </contour>
    <contour>
      <point x="325" y="101" type="line"/>
      <point x="344" y="107" type="line"/>
      <point x="333" y="229" type="line"/>
      <point x="313" y="224" type="line"/>
    </contour>
    <contour>
      <point x="126" y="206" type="line"/>
      <point x="111" y="193" type="line"/>
      <point x="215" y="90" type="line"/>
      <point x="231" y="103" type="line"/>
    </contour>
    <contour>
      <point x="428" y="217" type="line"/>
      <point x="423" y="195" type="line"/>
      <point x="505" y="225" type="line"/>
      <point x="510" y="247" type="line"/>
    </contour>
    <contour>
      <point x="241" y="275" type="line"/>
      <point x="225" y="263" type="line"/>
      <point x="253" y="212" type="line"/>
      <point x="269" y="224" type="line"/>
    </contour>
    <contour>
      <point x="341" y="90" type="line"/>
      <point x="435" y="204" type="line"/>
      <point x="420" y="217" type="line"/>
      <point x="325" y="103" type="line"/>
    </contour>
    <contour>
      <point x="330" y="212" type="line"/>
      <point x="355" y="263" type="line"/>
      <point x="339" y="275" type="line"/>
      <point x="314" y="224" type="line"/>
    </contour>
    <contour>
      <point x="123" y="186" type="line"/>
      <point x="242" y="262" type="line"/>
      <point x="237" y="281" type="line"/>
      <point x="118" y="205" type="line"/>
    </contour>
    <contour>
      <point x="346" y="281" type="line"/>
      <point x="341" y="262" type="line"/>
      <point x="424" y="193" type="line"/>
      <point x="429" y="212" type="line"/>
    </contour>
  </outline>
</glyph>
<glyph name="V" format="2">
  <advance width="579"/>
  <unicode hex="0056"/>
  <anchor x="290" y="50" name="bottom"/>
  <anchor x="290" y="550" name="top"/>
  <outline>
    <contour>
      <point x="2" y="550" type="line"/>
      <point x="161" y="50" type="line"/>
      <point x="181" y="55" type="line"/>
      <point x="23" y="550" type="line"/>
    </contour>
    <contour>
      <point x="169" y="55" type="line"/>
      <point x="305" y="109" type="line"/>
      <point x="294" y="127" type="line"/>
      <point x="158" y="72" type="line"/>
    </contour>
    <contour>
      <point x="161" y="50" type="line"/>
      <point x="418" y="50" type="line"/>
      <point x="418" y="70" type="line"/>
      <point x="161" y="70" type="line"/>
    </contour>
    <contour>
      <point x="413" y="55" type="line"/>
      <point x="424" y="72" type="line"/>
      <point x="294" y="127" type="line"/>
      <point x="283" y="109" type="line"/>
    </contour>
    <contour>
      <point x="275" y="110" type="line"/>
      <point x="295" y="119" type="line"/>
      <point x="200" y="414" type="line"/>
      <point x="177" y="414" type="line"/>
    </contour>
    <contour>
      <point x="182" y="399" type="line"/>
      <point x="194" y="416" type="line"/>
      <point x="27" y="541" type="line"/>
      <point x="15" y="525" type="line"/>
    </contour>
    <contour>
      <point x="317" y="234" type="line"/>
      <point x="330" y="255" type="line"/>
      <point x="236" y="550" type="line"/>
      <point x="215" y="547" type="line"/>
    </contour>
    <contour>
      <point x="13" y="530" type="line"/>
      <point x="234" y="530" type="line"/>
      <point x="234" y="550" type="line"/>
      <point x="13" y="550" type="line"/>
    </contour>
    <contour>
      <point x="348" y="96" type="line"/>
      <point x="450" y="416" type="line"/>
      <point x="431" y="422" type="line"/>
      <point x="330" y="105" type="line"/>
    </contour>
    <contour>
      <point x="201" y="394" type="line"/>
      <point x="237" y="527" type="line"/>
      <point x="222" y="545" type="line"/>
      <point x="184" y="407" type="line"/>
    </contour>
    <contour>
      <point x="297" y="113" type="line"/>
      <point x="427" y="544" type="line"/>
      <point x="408" y="550" type="line"/>
      <point x="277" y="118" type="line"/>
    </contour>
    <contour>
      <point x="418" y="50" type="line"/>
      <point x="577" y="550" type="line"/>
      <point x="557" y="550" type="line"/>
      <point x="398" y="55" type="line"/>
    </contour>
    <contour>
      <point x="429" y="400" type="line"/>
      <point x="445" y="415" type="line"/>
      <point x="425" y="543" type="line"/>
      <point x="406" y="534" type="line"/>
    </contour>
    <contour>
      <point x="440" y="398" type="line"/>
      <point x="571" y="533" type="line"/>
      <point x="556" y="549" type="line"/>
      <point x="434" y="421" type="line"/>
    </contour>
    <contour>
      <point x="408" y="530" type="line"/>
      <point x="570" y="530" type="line"/>
      <point x="570" y="550" type="line"/>
      <point x="408" y="550" type="line"/>
    </contour>
  </outline>
</glyph>
<glyph name="W" format="2">
  <advance width="927"/>
  <unicode hex="0057"/>
  <anchor x="504" y="50" name="bottom"/>
  <anchor x="504" y="550" name="top"/>
  <outline>
    <contour>
      <point x="178" y="50" type="line"/>
      <point x="198" y="50" type="line"/>
      <point x="22" y="550" type="line"/>
      <point x="2" y="550" type="line"/>
    </contour>
    <contour>
      <point x="14" y="530" type="line"/>
      <point x="251" y="530" type="line"/>
      <point x="246" y="550" type="line"/>
      <point x="2" y="550" type="line"/>
    </contour>
    <contour>
      <point x="323" y="275" type="line"/>
      <point x="335" y="297" type="line"/>
      <point x="246" y="550" type="line"/>
      <point x="225" y="550" type="line"/>
    </contour>
    <contour>
      <point x="266" y="112" type="line"/>
      <point x="285" y="103" type="line"/>
      <point x="408" y="550" type="line"/>
      <point x="388" y="550" type="line"/>
    </contour>
    <contour>
      <point x="178" y="50" type="line"/>
      <point x="391" y="50" type="line"/>
      <point x="391" y="70" type="line"/>
      <point x="178" y="70" type="line"/>
    </contour>
    <contour>
      <point x="263" y="104" type="line"/>
      <point x="280" y="113" type="line"/>
      <point x="158" y="440" type="line"/>
      <point x="137" y="440" type="line"/>
    </contour>
    <contour>
      <point x="391" y="50" type="line"/>
      <point x="469" y="312" type="line"/>
      <point x="456" y="341" type="line"/>
      <point x="371" y="50" type="line"/>
    </contour>
    <contour>
      <point x="156" y="418" type="line"/>
      <point x="248" y="534" type="line"/>
      <point x="237" y="549" type="line"/>
      <point x="143" y="433" type="line"/>
    </contour>
    <contour>
      <point x="184" y="63" type="line"/>
      <point x="283" y="105" type="line"/>
      <point x="272" y="122" type="line"/>
      <point x="173" y="79" type="line"/>
    </contour>
    <contour>
      <point x="383" y="57" type="line"/>
      <point x="394" y="73" type="line"/>
      <point x="276" y="120" type="line"/>
      <point x="265" y="104" type="line"/>
    </contour>
    <contour>
      <point x="539" y="50" type="line"/>
      <point x="559" y="50" type="line"/>
      <point x="400" y="547" type="line"/>
      <point x="387" y="524" type="line"/>
    </contour>
    <contour>
      <point x="749" y="50" type="line"/>
      <point x="925" y="550" type="line"/>
      <point x="905" y="550" type="line"/>
      <point x="729" y="50" type="line"/>
    </contour>
    <contour>
      <point x="543" y="50" type="line"/>
      <point x="747" y="50" type="line"/>
      <point x="747" y="70" type="line"/>
      <point x="543" y="70" type="line"/>
    </contour>
    <contour>
      <point x="692" y="102" type="line"/>
      <point x="809" y="448" type="line"/>
      <point x="788" y="448" type="line"/>
      <point x="675" y="111" type="line"/>
    </contour>
    <contour>
      <point x="733" y="59" type="line"/>
      <point x="748" y="72" type="line"/>
      <point x="688" y="120" type="line"/>
      <point x="674" y="105" type="line"/>
    </contour>
    <contour>
      <point x="394" y="530" type="line"/>
      <point x="600" y="530" type="line"/>
      <point x="595" y="550" type="line"/>
      <point x="388" y="550" type="line"/>
    </contour>
    <contour>
      <point x="674" y="289" type="line"/>
      <point x="683" y="321" type="line"/>
      <point x="603" y="550" type="line"/>
      <point x="583" y="550" type="line"/>
    </contour>
    <contour>
      <point x="597" y="81" type="line"/>
      <point x="618" y="87" type="line"/>
      <point x="767" y="550" type="line"/>
      <point x="746" y="550" type="line"/>
    </contour>
    <contour>
      <point x="605" y="81" type="line"/>
      <point x="622" y="92" type="line"/>
      <point x="500" y="445" type="line"/>
      <point x="480" y="445" type="line"/>
    </contour>
    <contour>
      <point x="751" y="530" type="line"/>
      <point x="909" y="530" type="line"/>
      <point x="915" y="550" type="line"/>
      <point x="758" y="550" type="line"/>
    </contour>
    <contour>
      <point x="497" y="423" type="line"/>
      <point x="603" y="530" type="line"/>
      <point x="592" y="545" type="line"/>
      <point x="486" y="438" type="line"/>
    </contour>
    <contour>
      <point x="796" y="424" type="line"/>
      <point x="910" y="529" type="line"/>
      <point x="899" y="545" type="line"/>
      <point x="785" y="440" type="line"/>
    </contour>
    <contour>
      <point x="150" y="416" type="line"/>
      <point x="158" y="435" type="line"/>
      <point x="29" y="547" type="line"/>
      <point x="17" y="532" type="line"/>
    </contour>
    <contour>
      <point x="490" y="427" type="line"/>
      <point x="501" y="442" type="line"/>
      <point x="404" y="545" type="line"/>
      <point x="393" y="530" type="line"/>
    </contour>
    <contour>
      <point x="788" y="424" type="line"/>
      <point x="802" y="440" type="line"/>
      <point x="763" y="547" type="line"/>
      <point x="749" y="531" type="line"/>
    </contour>
    <contour>
      <point x="335" y="87" type="line"/>
      <point x="437" y="423" type="line"/>
      <point x="424" y="451" type="line"/>
      <point x="316" y="94" type="line"/>
    </contour>
    <contour>
      <point x="687" y="99" type="line"/>
      <point x="679" y="118" type="line"/>
      <point x="534" y="72" type="line"/>
      <point x="544" y="56" type="line"/>
    </contour>
  </outline>
</glyph>
<glyph name="X" format="2">
  <advance width="589"/>
  <unicode hex="0058"/>
  <outline>
    <contour>
      <point x="562" y="50" type="line"/>
      <point x="584" y="50" type="line"/>
      <point x="394" y="325" type="line"/>
      <point x="380" y="311" type="line"/>
    </contour>
    <contour>
      <point x="22" y="50" type="line"/>
      <point x="226" y="50" type="line"/>
      <point x="226" y="70" type="line"/>
      <point x="22" y="70" type="line"/>
    </contour>
    <contour>
      <point x="42" y="55" type="line"/>
      <point x="199" y="95" type="line"/>
      <point x="188" y="111" type="line"/>
      <point x="29" y="68" type="line"/>
    </contour>
    <contour>
      <point x="28" y="50" type="line"/>
      <point x="220" y="305" type="line"/>
      <point x="205" y="317" type="line"/>
      <point x="5" y="50" type="line"/>
    </contour>
    <contour>
      <point x="215" y="54" type="line"/>
      <point x="230" y="66" type="line"/>
      <point x="195" y="111" type="line"/>
      <point x="182" y="97" type="line"/>
    </contour>
    <contour>
      <point x="227" y="50" type="line"/>
      <point x="284" y="139" type="line"/>
      <point x="274" y="157" type="line"/>
      <point x="202" y="50" type="line"/>
    </contour>
    <contour>
      <point x="327" y="50" type="line"/>
      <point x="341" y="64" type="line"/>
      <point x="254" y="193" type="line"/>
      <point x="239" y="180" type="line"/>
    </contour>
    <contour>
      <point x="333" y="55" type="line"/>
      <point x="431" y="96" type="line"/>
      <point x="418" y="109" type="line"/>
      <point x="320" y="68" type="line"/>
    </contour>
    <contour>
      <point x="194" y="89" type="line"/>
      <point x="306" y="261" type="line"/>
      <point x="292" y="272" type="line"/>
      <point x="176" y="100" type="line"/>
    </contour>
    <contour>
      <point x="327" y="50" type="line"/>
      <point x="566" y="50" type="line"/>
      <point x="566" y="70" type="line"/>
      <point x="327" y="70" type="line"/>
    </contour>
    <contour>
      <point x="210" y="298" type="line"/>
      <point x="221" y="312" type="line"/>
      <point x="36" y="550" type="line"/>
      <point x="16" y="550" type="line"/>
    </contour>
    <contour>
      <point x="557" y="57" type="line"/>
      <point x="558" y="76" type="line"/>
      <point x="421" y="110" type="line"/>
      <point x="414" y="94" type="line"/>
    </contour>
    <contour>
      <point x="206" y="304" type="line"/>
      <point x="307" y="258" type="line"/>
      <point x="305" y="280" type="line"/>
      <point x="202" y="327" type="line"/>
    </contour>
    <contour>
      <point x="411" y="96" type="line"/>
      <point x="427" y="107" type="line"/>
      <point x="306" y="280" type="line"/>
      <point x="292" y="266" type="line"/>
    </contour>
    <contour>
      <point x="301" y="255" type="line"/>
      <point x="312" y="269" type="line"/>
      <point x="190" y="444" type="line"/>
      <point x="176" y="430" type="line"/>
    </contour>
    <contour>
      <point x="188" y="419" type="line"/>
      <point x="193" y="439" type="line"/>
      <point x="49" y="541" type="line"/>
      <point x="36" y="528" type="line"/>
    </contour>
    <contour>
      <point x="306" y="261" type="line"/>
      <point x="397" y="314" type="line"/>
      <point x="388" y="328" type="line"/>
      <point x="297" y="275" type="line"/>
    </contour>
    <contour>
      <point x="36" y="530" type="line"/>
      <point x="263" y="530" type="line"/>
      <point x="263" y="550" type="line"/>
      <point x="27" y="550" type="line"/>
    </contour>
    <contour>
      <point x="190" y="420" type="line"/>
      <point x="268" y="531" type="line"/>
      <point x="254" y="545" type="line"/>
      <point x="176" y="434" type="line"/>
    </contour>
    <contour>
      <point x="308" y="264" type="line"/>
      <point x="423" y="436" type="line"/>
      <point x="409" y="450" type="line"/>
      <point x="292" y="274" type="line"/>
    </contour>
    <contour>
      <point x="258" y="326" type="line"/>
      <point x="392" y="536" type="line"/>
      <point x="378" y="550" type="line"/>
      <point x="248" y="343" type="line"/>
    </contour>
    <contour>
      <point x="312" y="434" type="line"/>
      <point x="325" y="447" type="line"/>
      <point x="263" y="550" type="line"/>
      <point x="249" y="536" type="line"/>
    </contour>
    <contour>
      <point x="397" y="312" type="line"/>
      <point x="569" y="550" type="line"/>
      <point x="547" y="550" type="line"/>
      <point x="374" y="310" type="line"/>
    </contour>
    <contour>
      <point x="405" y="426" type="line"/>
      <point x="421" y="438" type="line"/>
      <point x="393" y="544" type="line"/>
      <point x="377" y="531" type="line"/>
    </contour>
    <contour>
      <point x="412" y="424" type="line"/>
      <point x="546" y="528" type="line"/>
      <point x="533" y="542" type="line"/>
      <point x="405" y="441" type="line"/>
    </contour>
    <contour>
      <point x="377" y="530" type="line"/>
      <point x="553" y="530" type="line"/>
      <point x="553" y="550" type="line"/>
      <point x="378" y="550" type="line"/>
    </contour>
  </outline>
</glyph>
<glyph name="Y" format="2">
  <advance width="573"/>
  <unicode hex="0059"/>
  <anchor x="297" y="50" name="bottom"/>
  <anchor x="307" y="550" name="top"/>
  <anchor x="17" y="550" name="topleft"/>
  <outline>
    <contour>
      <point x="172" y="228" type="line"/>
      <point x="190" y="236" type="line"/>
      <point x="23" y="550" type="line"/>
      <point x="2" y="550" type="line"/>
    </contour>
    <contour>
      <point x="169" y="50" type="line"/>
      <point x="189" y="50" type="line"/>
      <point x="189" y="244" type="line"/>
      <point x="169" y="244" type="line"/>
    </contour>
    <contour>
      <point x="182" y="50" type="line"/>
      <point x="294" y="106" type="line"/>
      <point x="281" y="121" type="line"/>
      <point x="169" y="66" type="line"/>
    </contour>
    <contour>
      <point x="169" y="50" type="line"/>
      <point x="409" y="50" type="line"/>
      <point x="409" y="69" type="line"/>
      <point x="169" y="69" type="line"/>
    </contour>
    <contour>
      <point x="288" y="119" type="line"/>
      <point x="298" y="135" type="line"/>
      <point x="179" y="254" type="line"/>
      <point x="168" y="237" type="line"/>
    </contour>
    <contour>
      <point x="396" y="50" type="line"/>
      <point x="409" y="66" type="line"/>
      <point x="297" y="121" type="line"/>
      <point x="284" y="106" type="line"/>
    </contour>
    <contour>
      <point x="279" y="106" type="line"/>
      <point x="299" y="106" type="line"/>
      <point x="299" y="135" type="line"/>
      <point x="279" y="135" type="line"/>
    </contour>
    <contour>
      <point x="389" y="50" type="line"/>
      <point x="409" y="50" type="line"/>
      <point x="409" y="244" type="line"/>
      <point x="389" y="244" type="line"/>
    </contour>
    <contour>
      <point x="292" y="120" type="line"/>
      <point x="408" y="239" type="line"/>
      <point x="399" y="254" type="line"/>
      <point x="281" y="134" type="line"/>
    </contour>
    <contour>
      <point x="280" y="124" type="line"/>
      <point x="297" y="135" type="line"/>
      <point x="147" y="431" type="line"/>
      <point x="126" y="427" type="line"/>
    </contour>
    <contour>
      <point x="239" y="243" type="line"/>
      <point x="392" y="542" type="line"/>
      <point x="373" y="550" type="line"/>
      <point x="221" y="250" type="line"/>
    </contour>
    <contour>
      <point x="138" y="412" type="line"/>
      <point x="152" y="427" type="line"/>
      <point x="30" y="541" type="line"/>
      <point x="14" y="527" type="line"/>
    </contour>
    <contour>
      <point x="303" y="134" type="line"/>
      <point x="457" y="429" type="line"/>
      <point x="438" y="436" type="line"/>
      <point x="285" y="141" type="line"/>
    </contour>
    <contour>
      <point x="20" y="532" type="line"/>
      <point x="253" y="532" type="line"/>
      <point x="253" y="550" type="line"/>
      <point x="20" y="550" type="line"/>
    </contour>
    <contour>
      <point x="140" y="413" type="line"/>
      <point x="254" y="533" type="line"/>
      <point x="238" y="548" type="line"/>
      <point x="127" y="431" type="line"/>
    </contour>
    <contour>
      <point x="303" y="401" type="line"/>
      <point x="322" y="411" type="line"/>
      <point x="253" y="550" type="line"/>
      <point x="234" y="542" type="line"/>
    </contour>
    <contour>
      <point x="406" y="229" type="line"/>
      <point x="571" y="550" type="line"/>
      <point x="551" y="550" type="line"/>
      <point x="387" y="236" type="line"/>
    </contour>
    <contour>
      <point x="443" y="415" type="line"/>
      <point x="456" y="430" type="line"/>
      <point x="387" y="545" type="line"/>
      <point x="373" y="531" type="line"/>
    </contour>
    <contour>
      <point x="449" y="419" type="line"/>
      <point x="559" y="528" type="line"/>
      <point x="548" y="543" type="line"/>
      <point x="443" y="437" type="line"/>
    </contour>
    <contour>
      <point x="373" y="532" type="line"/>
      <point x="562" y="532" type="line"/>
      <point x="562" y="550" type="line"/>
      <point x="373" y="550" type="line"/>
    </contour>
  </outline>
</glyph>
<glyph name="AE" format="2">
  <advance width="761"/>
  <unicode hex="00C6"/>
  <anchor x="381" y="0" name="bottom"/>
  <anchor x="450" y="550" name="top"/>
  <outline>
    <contour>
      <point x="5" y="50" type="line"/>
      <point x="25" y="50" type="line"/>
      <point x="218" y="545" type="line"/>
      <point x="199" y="550" type="line"/>
    </contour>
    <contour>
      <point x="11" y="50" type="line"/>
      <point x="188" y="50" type="line"/>
      <point x="188" y="70" type="line"/>
      <point x="21" y="70" type="line"/>
    </contour>
    <contour>
      <point x="26" y="51" type="line"/>
      <point x="120" y="80" type="line"/>
      <point x="105" y="93" type="line"/>
      <point x="12" y="65" type="line"/>
    </contour>
    <contour>
      <point x="177" y="51" type="line"/>
      <point x="191" y="65" type="line"/>
      <point x="125" y="93" type="line"/>
      <point x="110" y="80" type="line"/>
    </contour>
    <contour>
      <point x="188" y="50" type="line"/>
      <point x="222" y="151" type="line"/>
      <point x="203" y="156" type="line"/>
      <point x="169" y="55" type="line"/>
    </contour>
    <contour>
      <point x="207" y="140" type="line"/>
      <point x="221" y="157" type="line"/>
      <point x="163" y="182" type="line"/>
      <point x="148" y="169" type="line"/>
    </contour>
    <contour>
      <point x="210" y="140" type="line"/>
      <point x="312" y="140" type="line"/>
      <point x="322" y="160" type="line"/>
      <point x="200" y="160" type="line"/>
    </contour>
    <contour>
      <point x="296" y="50" type="line"/>
      <point x="316" y="50" type="line"/>
      <point x="316" y="154" type="line"/>
      <point x="296" y="154" type="line"/>
    </contour>
    <contour>
      <point x="155" y="168" type="line"/>
      <point x="261" y="240" type="line"/>
      <point x="253" y="258" type="line"/>
      <point x="147" y="186" type="line"/>
    </contour>
    <contour>
      <point x="309" y="50" type="line"/>
      <point x="421" y="89" type="line"/>
      <point x="408" y="107" type="line"/>
      <point x="296" y="68" type="line"/>
    </contour>
    <contour>
      <point x="159" y="172" type="line"/>
      <point x="411" y="172" type="line"/>
      <point x="411" y="192" type="line"/>
      <point x="159" y="192" type="line"/>
    </contour>
    <contour>
      <point x="310" y="140" type="line"/>
      <point x="421" y="171" type="line"/>
      <point x="405" y="184" type="line"/>
      <point x="296" y="157" type="line"/>
    </contour>
    <contour>
      <point x="253" y="238" type="line"/>
      <point x="306" y="238" type="line"/>
      <point x="306" y="258" type="line"/>
      <point x="253" y="258" type="line"/>
    </contour>
    <contour>
      <point x="121" y="80" type="line"/>
      <point x="276" y="438" type="line"/>
      <point x="257" y="443" type="line"/>
      <point x="102" y="85" type="line"/>
    </contour>
    <contour>
      <point x="306" y="50" type="line"/>
      <point x="746" y="50" type="line"/>
      <point x="746" y="70" type="line"/>
      <point x="306" y="70" type="line"/>
    </contour>
    <contour>
      <point x="407" y="178" type="line"/>
      <point x="416" y="196" type="line"/>
      <point x="306" y="258" type="line"/>
      <point x="297" y="240" type="line"/>
    </contour>
    <contour>
      <point x="316" y="244" type="line"/>
      <point x="316" y="411" type="line"/>
      <point x="296" y="365" type="line"/>
      <point x="296" y="245" type="line"/>
    </contour>
    <contour>
      <point x="427" y="95" type="line"/>
      <point x="535" y="205" type="line"/>
      <point x="522" y="220" type="line"/>
      <point x="412" y="106" type="line"/>
    </contour>
    <contour>
      <point x="412" y="87" type="line"/>
      <point x="636" y="87" type="line"/>
      <point x="636" y="107" type="line"/>
      <point x="412" y="107" type="line"/>
    </contour>
    <contour>
      <point x="255" y="240" type="line"/>
      <point x="375" y="545" type="line"/>
      <point x="356" y="550" type="line"/>
      <point x="236" y="246" type="line"/>
    </contour>
    <contour>
      <point x="406" y="97" type="line"/>
      <point x="426" y="97" type="line"/>
      <point x="426" y="411" type="line"/>
      <point x="406" y="411" type="line"/>
    </contour>
    <contour>
      <point x="516" y="212" type="line"/>
      <point x="536" y="212" type="line"/>
      <point x="536" y="218" type="line"/>
      <point x="516" y="218" type="line"/>
    </contour>
    <contour>
      <point x="736" y="55" type="line"/>
      <point x="749" y="72" type="line"/>
      <point x="631" y="107" type="line"/>
      <point x="616" y="91" type="line"/>
    </contour>
    <contour>
      <point x="526" y="201" type="line"/>
      <point x="539" y="220" type="line"/>
      <point x="428" y="247" type="line"/>
      <point x="413" y="234" type="line"/>
    </contour>
    <contour>
      <point x="257" y="424" type="line"/>
      <point x="274" y="434" type="line"/>
      <point x="215" y="547" type="line"/>
      <point x="197" y="538" type="line"/>
    </contour>
    <contour>
      <point x="418" y="237" type="line"/>
      <point x="546" y="237" type="line"/>
      <point x="546" y="257" type="line"/>
      <point x="418" y="257" type="line"/>
    </contour>
    <contour>
      <point x="522" y="200" type="line"/>
      <point x="746" y="200" type="line"/>
      <point x="746" y="220" type="line"/>
      <point x="522" y="220" type="line"/>
    </contour>
    <contour>
      <point x="424" y="242" type="line"/>
      <point x="534" y="340" type="line"/>
      <point x="521" y="355" type="line"/>
      <point x="409" y="253" type="line"/>
    </contour>
    <contour>
      <point x="269" y="424" type="line"/>
      <point x="366" y="534" type="line"/>
      <point x="351" y="550" type="line"/>
      <point x="262" y="443" type="line"/>
    </contour>
    <contour>
      <point x="633" y="87" type="line"/>
      <point x="749" y="205" type="line"/>
      <point x="736" y="220" type="line"/>
      <point x="616" y="96" type="line"/>
    </contour>
    <contour>
      <point x="526" y="200" type="line"/>
      <point x="656" y="200" type="line"/>
      <point x="656" y="220" type="line"/>
      <point x="526" y="220" type="line"/>
    </contour>
    <contour>
      <point x="199" y="530" type="line"/>
      <point x="385" y="530" type="line"/>
      <point x="385" y="550" type="line"/>
      <point x="199" y="550" type="line"/>
    </contour>
    <contour>
      <point x="646" y="206" type="line"/>
      <point x="659" y="222" type="line"/>
      <point x="541" y="256" type="line"/>
      <point x="526" y="242" type="line"/>
    </contour>
    <contour>
      <point x="736" y="50" type="line"/>
      <point x="756" y="50" type="line"/>
      <point x="756" y="220" type="line"/>
      <point x="736" y="220" type="line"/>
    </contour>
    <contour>
      <point x="522" y="360" type="line"/>
      <point x="535" y="377" type="line"/>
      <point x="427" y="407" type="line"/>
      <point x="412" y="393" type="line"/>
    </contour>
    <contour>
      <point x="516" y="335" type="line"/>
      <point x="536" y="335" type="line"/>
      <point x="536" y="380" type="line"/>
      <point x="516" y="380" type="line"/>
    </contour>
    <contour>
      <point x="408" y="396" type="line"/>
      <point x="424" y="409" type="line"/>
      <point x="378" y="545" type="line"/>
      <point x="362" y="532" type="line"/>
    </contour>
    <contour>
      <point x="543" y="238" type="line"/>
      <point x="663" y="340" type="line"/>
      <point x="650" y="355" type="line"/>
      <point x="522" y="247" type="line"/>
    </contour>
    <contour>
      <point x="646" y="200" type="line"/>
      <point x="666" y="200" type="line"/>
      <point x="666" y="355" type="line"/>
      <point x="646" y="355" type="line"/>
    </contour>
    <contour>
      <point x="526" y="335" type="line"/>
      <point x="666" y="335" type="line"/>
      <point x="666" y="355" type="line"/>
      <point x="526" y="355" type="line"/>
    </contour>
    <contour>
      <point x="412" y="393" type="line"/>
      <point x="636" y="393" type="line"/>
      <point x="636" y="413" type="line"/>
      <point x="412" y="413" type="line"/>
    </contour>
    <contour>
      <point x="522" y="360" type="line"/>
      <point x="746" y="360" type="line"/>
      <point x="746" y="380" type="line"/>
      <point x="522" y="380" type="line"/>
    </contour>
    <contour>
      <point x="336" y="530" type="line"/>
      <point x="746" y="530" type="line"/>
      <point x="746" y="550" type="line"/>
      <point x="336" y="550" type="line"/>
    </contour>
    <contour>
      <point x="736" y="367" type="line"/>
      <point x="749" y="382" type="line"/>
      <point x="633" y="413" type="line"/>
      <point x="615" y="395" type="line"/>
    </contour>
    <contour>
      <point x="630" y="396" type="line"/>
      <point x="749" y="530" type="line"/>
      <point x="732" y="543" type="line"/>
      <point x="615" y="410" type="line"/>
    </contour>
    <contour>
      <point x="736" y="360" type="line"/>
      <point x="756" y="360" type="line"/>
      <point x="756" y="550" type="line"/>
      <point x="736" y="550" type="line"/>
    </contour>
  </outline>
</glyph>
<glyph name="Thorn" format="2">
  <advance width="568"/>
  <unicode hex="00DE"/>
  <outline>
    <contour>
      <point x="5" y="548" type="line"/>
      <point x="5" y="50" type="line"/>
      <point x="25" y="50" type="line"/>
      <point x="25" y="548" type="line"/>
    </contour>
    <contour>
      <point x="222" y="126" type="line"/>
      <point x="222" y="50" type="line"/>
      <point x="242" y="50" type="line"/>
      <point x="242" y="126" type="line"/>
    </contour>
    <contour>
      <point x="235" y="70" type="line"/>
      <point x="10" y="70" type="line"/>
      <point x="9" y="50" type="line"/>
      <point x="235" y="50" type="line"/>
    </contour>
    <contour>
      <point x="404" y="137" type="line"/>
      <point x="222" y="137" type="line"/>
      <point x="222" y="117" type="line"/>
      <point x="404" y="117" type="line"/>
    </contour>
    <contour>
      <point x="404" y="470" type="line"/>
      <point x="235" y="470" type="line"/>
      <point x="235" y="450" type="line"/>
      <point x="404" y="450" type="line"/>
    </contour>
    <contour>
      <point x="221" y="319" type="line"/>
      <point x="221" y="254" type="line"/>
      <point x="240" y="254" type="line"/>
      <point x="240" y="319" type="line"/>
    </contour>
    <contour>
      <point x="429" y="299" type="line"/>
      <point x="429" y="216" type="line"/>
      <point x="448" y="216" type="line"/>
      <point x="448" y="299" type="line"/>
    </contour>
    <contour>
      <point x="18" y="50" type="line"/>
      <point x="130" y="109" type="line"/>
      <point x="117" y="122" type="line"/>
      <point x="5" y="63" type="line"/>
    </contour>
    <contour>
      <point x="229" y="50" type="line"/>
      <point x="242" y="63" type="line"/>
      <point x="133" y="122" type="line"/>
      <point x="120" y="109" type="line"/>
    </contour>
    <contour>
      <point x="115" y="107" type="line"/>
      <point x="135" y="107" type="line"/>
      <point x="135" y="454" type="line"/>
      <point x="115" y="457" type="line"/>
    </contour>
    <contour>
      <point x="233" y="114" type="line"/>
      <point x="246" y="132" type="line"/>
      <point x="138" y="170" type="line"/>
      <point x="129" y="150" type="line"/>
    </contour>
    <contour>
      <point x="332" y="348" type="line"/>
      <point x="351" y="340" type="line"/>
      <point x="406" y="455" type="line"/>
      <point x="391" y="465" type="line"/>
    </contour>
    <contour>
      <point x="325" y="343" type="line"/>
      <point x="438" y="283" type="line"/>
      <point x="448" y="299" type="line"/>
      <point x="345" y="354" type="line"/>
    </contour>
    <contour>
      <point x="389" y="454" type="line"/>
      <point x="550" y="350" type="line"/>
      <point x="563" y="366" type="line"/>
      <point x="404" y="470" type="line"/>
    </contour>
    <contour>
      <point x="439" y="283" type="line"/>
      <point x="560" y="350" type="line"/>
      <point x="550" y="364" type="line"/>
      <point x="428" y="298" type="line"/>
    </contour>
    <contour>
      <point x="541" y="366" type="line"/>
      <point x="541" y="231" type="line"/>
      <point x="563" y="231" type="line"/>
      <point x="563" y="366" type="line"/>
    </contour>
    <contour>
      <point x="389" y="133" type="line"/>
      <point x="404" y="117" type="line"/>
      <point x="563" y="231" type="line"/>
      <point x="552" y="247" type="line"/>
    </contour>
    <contour>
      <point x="435" y="226" type="line"/>
      <point x="433" y="205" type="line"/>
      <point x="555" y="227" type="line"/>
      <point x="555" y="246" type="line"/>
    </contour>
    <contour>
      <point x="334" y="157" type="line"/>
      <point x="397" y="119" type="line"/>
      <point x="407" y="136" type="line"/>
      <point x="353" y="168" type="line"/>
    </contour>
    <contour>
      <point x="346" y="166" type="line"/>
      <point x="358" y="151" type="line"/>
      <point x="451" y="214" type="line"/>
      <point x="441" y="233" type="line"/>
    </contour>
    <contour>
      <point x="354" y="169" type="line"/>
      <point x="135" y="169" type="line"/>
      <point x="135" y="149" type="line"/>
      <point x="361" y="149" type="line"/>
    </contour>
    <contour>
      <point x="345" y="354" type="line"/>
      <point x="129" y="354" type="line"/>
      <point x="129" y="334" type="line"/>
      <point x="345" y="334" type="line"/>
    </contour>
    <contour>
      <point x="223" y="267" type="line"/>
      <point x="121" y="172" type="line"/>
      <point x="132" y="156" type="line"/>
      <point x="243" y="259" type="line"/>
    </contour>
    <contour>
      <point x="296" y="264" type="line"/>
      <point x="341" y="157" type="line"/>
      <point x="355" y="171" type="line"/>
      <point x="315" y="265" type="line"/>
    </contour>
    <contour>
      <point x="315" y="272" type="line"/>
      <point x="230" y="272" type="line"/>
      <point x="230" y="255" type="line"/>
      <point x="315" y="255" type="line"/>
    </contour>
    <contour>
      <point x="310" y="319" type="line"/>
      <point x="221" y="319" type="line"/>
      <point x="221" y="300" type="line"/>
      <point x="298" y="300" type="line"/>
    </contour>
    <contour>
      <point x="282" y="308" type="line"/>
      <point x="313" y="308" type="line"/>
      <point x="354" y="334" type="line"/>
      <point x="337" y="344" type="line"/>
    </contour>
    <contour>
      <point x="326" y="292" type="line"/>
      <point x="326" y="276" type="line"/>
      <point x="345" y="276" type="line"/>
      <point x="345" y="291" type="line"/>
    </contour>
    <contour>
      <point x="340" y="278" type="line"/>
      <point x="434" y="280" type="line"/>
      <point x="433" y="299" type="line"/>
      <point x="334" y="296" type="line"/>
    </contour>
    <contour>
      <point x="340" y="293" type="line"/>
      <point x="321" y="279" type="line"/>
      <point x="438" y="209" type="line"/>
      <point x="446" y="225" type="line"/>
    </contour>
    <contour>
      <point x="297" y="265" type="line"/>
      <point x="310" y="252" type="line"/>
      <point x="348" y="278" type="line"/>
      <point x="334" y="293" type="line"/>
    </contour>
    <contour>
      <point x="295" y="302" type="line"/>
      <point x="334" y="279" type="line"/>
      <point x="343" y="293" type="line"/>
      <point x="310" y="316" type="line"/>
    </contour>
    <contour>
      <point x="120" y="441" type="line"/>
      <point x="128" y="463" type="line"/>
      <point x="31" y="537" type="line"/>
      <point x="15" y="524" type="line"/>
    </contour>
    <contour>
      <point x="227" y="549" type="line"/>
      <point x="5" y="549" type="line"/>
      <point x="5" y="529" type="line"/>
      <point x="227" y="529" type="line"/>
    </contour>
    <contour>
      <point x="123" y="441" type="line"/>
      <point x="228" y="524" type="line"/>
      <point x="212" y="537" type="line"/>
      <point x="115" y="463" type="line"/>
    </contour>
    <contour>
      <point x="232" y="297" type="line"/>
      <point x="241" y="315" type="line"/>
      <point x="128" y="347" type="line"/>
      <point x="120" y="330" type="line"/>
    </contour>
    <contour>
      <point x="222" y="549" type="line"/>
      <point x="222" y="450" type="line"/>
      <point x="242" y="450" type="line"/>
      <point x="242" y="549" type="line"/>
    </contour>
    <contour>
      <point x="223" y="458" type="line"/>
      <point x="123" y="360" type="line"/>
      <point x="134" y="344" type="line"/>
      <point x="243" y="450" type="line"/>
    </contour>
  </outline>
</glyph>
<glyph name="Lcaron" format="2">
  <advance width="450"/>
  <unicode hex="013D"/>
  <anchor x="230" y="50" name="bottom"/>
  <anchor x="130" y="300" name="center"/>
  <anchor x="130" y="550" name="top"/>
  <anchor x="335" y="550" name="topright"/>
  <outline>
    <contour>
      <point x="305" y="460" type="line"/>
      <point x="322" y="460" type="line"/>
      <point x="322" y="544" type="line"/>
      <point x="305" y="544" type="line"/>
    </contour>
    <contour>
      <point x="308" y="542" type="line"/>
      <point x="336" y="487" type="line"/>
      <point x="350" y="495" type="line"/>
      <point x="322" y="550" type="line"/>
    </contour>
    <contour>
      <point x="308" y="460" type="line"/>
      <point x="359" y="460" type="line"/>
      <point x="363" y="476" type="line"/>
      <point x="313" y="476" type="line"/>
    </contour>
    <contour>
      <point x="327" y="467" type="line"/>
      <point x="343" y="467" type="line"/>
      <point x="354" y="500" type="line"/>
      <point x="338" y="500" type="line"/>
    </contour>
    <contour>
      <point x="305" y="537" type="line"/>
      <point x="402" y="537" type="line"/>
      <point x="402" y="550" type="line"/>
      <point x="305" y="550" type="line"/>
    </contour>
    <contour>
      <point x="345" y="460" type="line"/>
      <point x="364" y="460" type="line"/>
      <point x="419" y="550" type="line"/>
      <point x="399" y="550" type="line"/>
    </contour>
    <contour>
      <point x="336" y="493" type="line"/>
      <point x="345" y="482" type="line"/>
      <point x="401" y="540" type="line"/>
      <point x="390" y="550" type="line"/>
    </contour>
    <component base="L"/>
  </outline>
</glyph>
<glyph name="Lslash" format="2">
  <advance width="475"/>
  <unicode hex="0141"/>
  <outline>
    <contour>
      <point x="43" y="50" type="line"/>
      <point x="155" y="83" type="line"/>
      <point x="142" y="98" type="line"/>
      <point x="30" y="63" type="line"/>
    </contour>
    <contour>
      <point x="30" y="50" type="line"/>
      <point x="50" y="50" type="line"/>
      <point x="50" y="185" type="line"/>
      <point x="30" y="178" type="line"/>
    </contour>
    <contour>
      <point x="140" y="91" type="line"/>
      <point x="160" y="91" type="line"/>
      <point x="160" y="401" type="line"/>
      <point x="140" y="401" type="line"/>
    </contour>
    <contour>
      <point x="142" y="386" type="line"/>
      <point x="155" y="399" type="line"/>
      <point x="43" y="550" type="line"/>
      <point x="30" y="537" type="line"/>
    </contour>
    <contour>
      <point x="250" y="221" type="line"/>
      <point x="270" y="221" type="line"/>
      <point x="270" y="253" type="line"/>
      <point x="250" y="251" type="line"/>
    </contour>
    <contour>
      <point x="40" y="50" type="line"/>
      <point x="463" y="50" type="line"/>
      <point x="463" y="70" type="line"/>
      <point x="40" y="70" type="line"/>
    </contour>
    <contour>
      <point x="161" y="89" type="line"/>
      <point x="269" y="226" type="line"/>
      <point x="256" y="241" type="line"/>
      <point x="146" y="100" type="line"/>
    </contour>
    <contour>
      <point x="146" y="81" type="line"/>
      <point x="370" y="81" type="line"/>
      <point x="370" y="101" type="line"/>
      <point x="146" y="101" type="line"/>
    </contour>
    <contour>
      <point x="256" y="221" type="line"/>
      <point x="460" y="221" type="line"/>
      <point x="460" y="241" type="line"/>
      <point x="256" y="241" type="line"/>
    </contour>
    <contour>
      <point x="449" y="65" type="line"/>
      <point x="463" y="78" type="line"/>
      <point x="365" y="98" type="line"/>
      <point x="349" y="83" type="line"/>
    </contour>
    <contour>
      <point x="368" y="85" type="line"/>
      <point x="461" y="222" type="line"/>
      <point x="448" y="237" type="line"/>
      <point x="351" y="91" type="line"/>
    </contour>
    <contour>
      <point x="450" y="50" type="line"/>
      <point x="470" y="50" type="line"/>
      <point x="470" y="241" type="line"/>
      <point x="450" y="241" type="line"/>
    </contour>
    <contour>
      <point x="40" y="550" type="line"/>
      <point x="40" y="530" type="line"/>
      <point x="270" y="530" type="line"/>
      <point x="270" y="550" type="line"/>
    </contour>
    <contour>
      <point x="256" y="548" type="line"/>
      <point x="141" y="399" type="line"/>
      <point x="154" y="386" type="line"/>
      <point x="267" y="532" type="line"/>
    </contour>
    <contour>
      <point x="30" y="348" type="line"/>
      <point x="50" y="348" type="line"/>
      <point x="50" y="550" type="line"/>
      <point x="30" y="550" type="line"/>
    </contour>
    <contour>
      <point x="388" y="450" type="line"/>
      <point x="388" y="279" type="line"/>
      <point x="405" y="279" type="line"/>
      <point x="405" y="450" type="line"/>
    </contour>
    <contour>
      <point x="60" y="228" type="line"/>
      <point x="336" y="309" type="line"/>
      <point x="335" y="328" type="line"/>
      <point x="60" y="248" type="line"/>
    </contour>
    <contour>
      <point x="317" y="313" type="line"/>
      <point x="391" y="279" type="line"/>
      <point x="403" y="293" type="line"/>
      <point x="330" y="325" type="line"/>
    </contour>
    <contour>
      <point x="319" y="323" type="line"/>
      <point x="332" y="306" type="line"/>
      <point x="403" y="444" type="line"/>
      <point x="389" y="454" type="line"/>
    </contour>
    <contour>
      <point x="405" y="465" type="line"/>
      <point x="254" y="412" type="line"/>
      <point x="254" y="395" type="line"/>
      <point x="405" y="448" type="line"/>
    </contour>
    <contour>
      <point x="405" y="299" type="line"/>
      <point x="251" y="251" type="line"/>
      <point x="265" y="231" type="line"/>
      <point x="405" y="279" type="line"/>
    </contour>
    <contour>
      <point x="250" y="402" type="line"/>
      <point x="270" y="402" type="line"/>
      <point x="270" y="550" type="line"/>
      <point x="250" y="550" type="line"/>
    </contour>
    <contour>
      <point x="156" y="244" type="line"/>
      <point x="258" y="234" type="line"/>
      <point x="271" y="253" type="line"/>
      <point x="159" y="267" type="line"/>
    </contour>
    <contour>
      <point x="146" y="284" type="line"/>
      <point x="159" y="271" type="line"/>
      <point x="276" y="406" type="line"/>
      <point x="260" y="419" type="line"/>
    </contour>
    <contour>
      <point x="22" y="173" type="line"/>
      <point x="22" y="344" type="line"/>
      <point x="5" y="344" type="line"/>
      <point x="5" y="173" type="line"/>
    </contour>
    <contour>
      <point x="81" y="244" type="line"/>
      <point x="19" y="344" type="line"/>
      <point x="5" y="330" type="line"/>
      <point x="67" y="233" type="line"/>
    </contour>
    <contour>
      <point x="81" y="244" type="line"/>
      <point x="65" y="252" type="line"/>
      <point x="7" y="179" type="line"/>
      <point x="21" y="169" type="line"/>
    </contour>
    <contour>
      <point x="5" y="158" type="line"/>
      <point x="47" y="175" type="line"/>
      <point x="47" y="196" type="line"/>
      <point x="5" y="179" type="line"/>
    </contour>
    <contour>
      <point x="5" y="324" type="line"/>
      <point x="46" y="333" type="line"/>
      <point x="46" y="356" type="line"/>
      <point x="5" y="344" type="line"/>
    </contour>
    <contour>
      <point x="147" y="283" type="line"/>
      <point x="46" y="353" type="line"/>
      <point x="31" y="334" type="line"/>
      <point x="144" y="264" type="line"/>
    </contour>
    <contour>
      <point x="156" y="247" type="line"/>
      <point x="143" y="260" type="line"/>
      <point x="30" y="185" type="line"/>
      <point x="44" y="172" type="line"/>
    </contour>
  </outline>
</glyph>
<glyph name="Eng" format="2">
  <advance width="631"/>
  <unicode hex="014A"/>
  <outline>
    <contour>
      <point x="10" y="50" type="line"/>
      <point x="30" y="50" type="line"/>
      <point x="30" y="550" type="line"/>
      <point x="10" y="550" type="line"/>
    </contour>
    <contour>
      <point x="172" y="50" type="line"/>
      <point x="192" y="50" type="line"/>
      <point x="192" y="379" type="line"/>
      <point x="172" y="415" type="line"/>
    </contour>
    <contour>
      <point x="601" y="-24" type="line"/>
      <point x="621" y="-24" type="line"/>
      <point x="621" y="550" type="line"/>
      <point x="601" y="550" type="line"/>
    </contour>
    <contour>
      <point x="510" y="90" type="line"/>
      <point x="530" y="87" type="line"/>
      <point x="530" y="459" type="line"/>
      <point x="510" y="459" type="line"/>
    </contour>
    <contour>
      <point x="605" y="68" type="line"/>
      <point x="615" y="84" type="line"/>
      <point x="478" y="104" type="line"/>
      <point x="468" y="88" type="line"/>
    </contour>
    <contour>
      <point x="394" y="58" type="line"/>
      <point x="495" y="88" type="line"/>
      <point x="478" y="104" type="line"/>
      <point x="384" y="74" type="line"/>
    </contour>
    <contour>
      <point x="24" y="59" type="line"/>
      <point x="105" y="91" type="line"/>
      <point x="92" y="104" type="line"/>
      <point x="11" y="72" type="line"/>
    </contour>
    <contour>
      <point x="179" y="61" type="line"/>
      <point x="191" y="75" type="line"/>
      <point x="102" y="102" type="line"/>
      <point x="91" y="88" type="line"/>
    </contour>
    <contour>
      <point x="383" y="60" type="line"/>
      <point x="402" y="68" type="line"/>
      <point x="110" y="539" type="line"/>
      <point x="92" y="531" type="line"/>
    </contour>
    <contour>
      <point x="11" y="50" type="line"/>
      <point x="192" y="50" type="line"/>
      <point x="192" y="70" type="line"/>
      <point x="11" y="70" type="line"/>
    </contour>
    <contour>
      <point x="10" y="530" type="line"/>
      <point x="334" y="530" type="line"/>
      <point x="334" y="550" type="line"/>
      <point x="10" y="550" type="line"/>
    </contour>
    <contour>
      <point x="284" y="417" type="line"/>
      <point x="337" y="531" type="line"/>
      <point x="324" y="547" type="line"/>
      <point x="271" y="433" type="line"/>
    </contour>
    <contour>
      <point x="453" y="277" type="line"/>
      <point x="453" y="314" type="line"/>
      <point x="334" y="550" type="line"/>
      <point x="316" y="545" type="line"/>
    </contour>
    <contour>
      <point x="440" y="91" type="line"/>
      <point x="460" y="92" type="line"/>
      <point x="460" y="550" type="line"/>
      <point x="440" y="550" type="line"/>
    </contour>
    <contour>
      <point x="85" y="91" type="line"/>
      <point x="105" y="91" type="line"/>
      <point x="105" y="532" type="line"/>
      <point x="85" y="532" type="line"/>
    </contour>
    <contour>
      <point x="440" y="530" type="line"/>
      <point x="621" y="530" type="line"/>
      <point x="621" y="550" type="line"/>
      <point x="440" y="550" type="line"/>
    </contour>
    <contour>
      <point x="521" y="439" type="line"/>
      <point x="615" y="536" type="line"/>
      <point x="599" y="547" type="line"/>
      <point x="507" y="453" type="line"/>
    </contour>
    <contour>
      <point x="441" y="85" type="line"/>
      <point x="460" y="91" type="line"/>
      <point x="282" y="437" type="line"/>
      <point x="264" y="429" type="line"/>
    </contour>
    <contour>
      <point x="273" y="418" type="line"/>
      <point x="284" y="433" type="line"/>
      <point x="104" y="550" type="line"/>
      <point x="93" y="535" type="line"/>
    </contour>
    <contour>
      <point x="521" y="436" type="line"/>
      <point x="531" y="454" type="line"/>
      <point x="454" y="549" type="line"/>
      <point x="441" y="534" type="line"/>
    </contour>
    <contour>
      <point x="453" y="-120" type="line"/>
      <point x="621" y="-24" type="line"/>
      <point x="607" y="-10" type="line"/>
      <point x="437" y="-106" type="line"/>
    </contour>
    <contour>
      <point x="275" y="-120" type="line"/>
      <point x="453" y="-120" type="line"/>
      <point x="451" y="-102" type="line"/>
      <point x="275" y="-102" type="line"/>
    </contour>
    <contour>
      <point x="275" y="-120" type="line"/>
      <point x="295" y="-120" type="line"/>
      <point x="295" y="25" type="line"/>
      <point x="275" y="25" type="line"/>
    </contour>
    <contour>
      <point x="297" y="-116" type="line"/>
      <point x="403" y="-97" type="line"/>
      <point x="390" y="-81" type="line"/>
      <point x="285" y="-101" type="line"/>
    </contour>
    <contour>
      <point x="439" y="-111" type="line"/>
      <point x="456" y="-100" type="line"/>
      <point x="404" y="-82" type="line"/>
      <point x="387" y="-93" type="line"/>
    </contour>
    <contour>
      <point x="276" y="5" type="line"/>
      <point x="355" y="5" type="line"/>
      <point x="355" y="25" type="line"/>
      <point x="276" y="25" type="line"/>
    </contour>
    <contour>
      <point x="385" y="-93" type="line"/>
      <point x="403" y="-81" type="line"/>
      <point x="355" y="20" type="line"/>
      <point x="338" y="6" type="line"/>
    </contour>
    <contour>
      <point x="355" y="5" type="line"/>
      <point x="402" y="24" type="line"/>
      <point x="388" y="39" type="line"/>
      <point x="341" y="20" type="line"/>
    </contour>
    <contour>
      <point x="399" y="-97" type="line"/>
      <point x="506" y="-29" type="line"/>
      <point x="492" y="-15" type="line"/>
      <point x="385" y="-83" type="line"/>
    </contour>
    <contour>
      <point x="495" y="-33" type="line"/>
      <point x="495" y="-12" type="line"/>
      <point x="388" y="39" type="line"/>
      <point x="392" y="20" type="line"/>
    </contour>
    <contour>
      <point x="484" y="-31" type="line"/>
      <point x="615" y="-28" type="line"/>
      <point x="621" y="-11" type="line"/>
      <point x="490" y="-14" type="line"/>
    </contour>
    <contour>
      <point x="382" y="24" type="line"/>
      <point x="402" y="24" type="line"/>
      <point x="402" y="68" type="line"/>
      <point x="382" y="68" type="line"/>
    </contour>
    <contour>
      <point x="486" y="-29" type="line"/>
      <point x="506" y="-29" type="line"/>
      <point x="506" y="87" type="line"/>
      <point x="486" y="97" type="line"/>
    </contour>
  </outline>
</glyph>
<glyph name="OE" format="2">
  <advance width="770"/>
  <unicode hex="0152"/>
  <anchor x="515" y="0" name="bottom"/>
  <anchor x="703" y="10" name="ogonek"/>
  <anchor x="515" y="600" name="top"/>
  <anchor x="300" y="600" name="topleft"/>
  <outline>
    <contour>
      <point x="155" y="50" type="line"/>
      <point x="169" y="64" type="line"/>
      <point x="19" y="194" type="line"/>
      <point x="5" y="180" type="line"/>
    </contour>
    <contour>
      <point x="25" y="177" type="line"/>
      <point x="108" y="189" type="line"/>
      <point x="102" y="210" type="line"/>
      <point x="19" y="198" type="line"/>
    </contour>
    <contour>
      <point x="171" y="59" type="line"/>
      <point x="219" y="98" type="line"/>
      <point x="200" y="107" type="line"/>
      <point x="152" y="68" type="line"/>
    </contour>
    <contour>
      <point x="155" y="50" type="line"/>
      <point x="325" y="50" type="line"/>
      <point x="325" y="70" type="line"/>
      <point x="155" y="70" type="line"/>
    </contour>
    <contour>
      <point x="200" y="89" type="line"/>
      <point x="214" y="103" type="line"/>
      <point x="109" y="209" type="line"/>
      <point x="95" y="195" type="line"/>
    </contour>
    <contour>
      <point x="5" y="180" type="line"/>
      <point x="25" y="180" type="line"/>
      <point x="25" y="410" type="line"/>
      <point x="5" y="410" type="line"/>
    </contour>
    <contour>
      <point x="110" y="191" type="line"/>
      <point x="235" y="238" type="line"/>
      <point x="229" y="258" type="line"/>
      <point x="104" y="211" type="line"/>
    </contour>
    <contour>
      <point x="200" y="89" type="line"/>
      <point x="326" y="89" type="line"/>
      <point x="326" y="107" type="line"/>
      <point x="200" y="107" type="line"/>
    </contour>
    <contour>
      <point x="214" y="93" type="line"/>
      <point x="264" y="217" type="line"/>
      <point x="247" y="227" type="line"/>
      <point x="197" y="103" type="line"/>
    </contour>
    <contour>
      <point x="95" y="195" type="line"/>
      <point x="115" y="195" type="line"/>
      <point x="115" y="335" type="line"/>
      <point x="95" y="335" type="line"/>
    </contour>
    <contour>
      <point x="247" y="209" type="line"/>
      <point x="261" y="223" type="line"/>
      <point x="229" y="254" type="line"/>
      <point x="215" y="240" type="line"/>
    </contour>
    <contour>
      <point x="247" y="209" type="line"/>
      <point x="283" y="209" type="line"/>
      <point x="283" y="227" type="line"/>
      <point x="247" y="227" type="line"/>
    </contour>
    <contour>
      <point x="102" y="315" type="line"/>
      <point x="108" y="337" type="line"/>
      <point x="25" y="413" type="line"/>
      <point x="19" y="391" type="line"/>
    </contour>
    <contour>
      <point x="215" y="240" type="line"/>
      <point x="235" y="240" type="line"/>
      <point x="235" y="365" type="line"/>
      <point x="215" y="365" type="line"/>
    </contour>
    <contour>
      <point x="229" y="351" type="line"/>
      <point x="235" y="374" type="line"/>
      <point x="115" y="342" type="line"/>
      <point x="109" y="321" type="line"/>
    </contour>
    <contour>
      <point x="19" y="396" type="line"/>
      <point x="169" y="536" type="line"/>
      <point x="155" y="550" type="line"/>
      <point x="5" y="410" type="line"/>
    </contour>
    <contour>
      <point x="109" y="321" type="line"/>
      <point x="214" y="412" type="line"/>
      <point x="200" y="426" type="line"/>
      <point x="95" y="335" type="line"/>
    </contour>
    <contour>
      <point x="229" y="351" type="line"/>
      <point x="261" y="372" type="line"/>
      <point x="247" y="386" type="line"/>
      <point x="215" y="365" type="line"/>
    </contour>
    <contour>
      <point x="247" y="368" type="line"/>
      <point x="283" y="368" type="line"/>
      <point x="283" y="386" type="line"/>
      <point x="247" y="386" type="line"/>
    </contour>
    <contour>
      <point x="244" y="368" type="line"/>
      <point x="262" y="378" type="line"/>
      <point x="210" y="420" type="line"/>
      <point x="192" y="410" type="line"/>
    </contour>
    <contour>
      <point x="196" y="409" type="line"/>
      <point x="213" y="415" type="line"/>
      <point x="171" y="536" type="line"/>
      <point x="154" y="530" type="line"/>
    </contour>
    <contour>
      <point x="155" y="532" type="line"/>
      <point x="333" y="532" type="line"/>
      <point x="331" y="550" type="line"/>
      <point x="155" y="550" type="line"/>
    </contour>
    <contour>
      <point x="415" y="92" type="line"/>
      <point x="435" y="92" type="line"/>
      <point x="435" y="411" type="line"/>
      <point x="415" y="411" type="line"/>
    </contour>
    <contour>
      <point x="535" y="212" type="line"/>
      <point x="548" y="228" type="line"/>
      <point x="430" y="246" type="line"/>
      <point x="415" y="233" type="line"/>
    </contour>
    <contour>
      <point x="535" y="210" type="line"/>
      <point x="665" y="210" type="line"/>
      <point x="665" y="230" type="line"/>
      <point x="535" y="230" type="line"/>
    </contour>
    <contour>
      <point x="430" y="235" type="line"/>
      <point x="548" y="340" type="line"/>
      <point x="535" y="355" type="line"/>
      <point x="415" y="246" type="line"/>
    </contour>
    <contour>
      <point x="417" y="396" type="line"/>
      <point x="430" y="409" type="line"/>
      <point x="328" y="550" type="line"/>
      <point x="315" y="537" type="line"/>
    </contour>
    <contour>
      <point x="435" y="237" type="line"/>
      <point x="575" y="237" type="line"/>
      <point x="555" y="257" type="line"/>
      <point x="435" y="257" type="line"/>
    </contour>
    <contour>
      <point x="535" y="335" type="line"/>
      <point x="665" y="335" type="line"/>
      <point x="665" y="355" type="line"/>
      <point x="535" y="355" type="line"/>
    </contour>
    <contour>
      <point x="657" y="220" type="line"/>
      <point x="670" y="235" type="line"/>
      <point x="550" y="257" type="line"/>
      <point x="529" y="242" type="line"/>
    </contour>
    <contour>
      <point x="552" y="237" type="line"/>
      <point x="668" y="340" type="line"/>
      <point x="655" y="355" type="line"/>
      <point x="535" y="246" type="line"/>
    </contour>
    <contour>
      <point x="655" y="210" type="line"/>
      <point x="675" y="210" type="line"/>
      <point x="675" y="355" type="line"/>
      <point x="655" y="355" type="line"/>
    </contour>
    <contour>
      <point x="525" y="212" type="line"/>
      <point x="545" y="212" type="line"/>
      <point x="545" y="228" type="line"/>
      <point x="525" y="228" type="line"/>
    </contour>
    <contour>
      <point x="317" y="50" type="line"/>
      <point x="755" y="50" type="line"/>
      <point x="755" y="70" type="line"/>
      <point x="317" y="70" type="line"/>
    </contour>
    <contour>
      <point x="436" y="90" type="line"/>
      <point x="544" y="215" type="line"/>
      <point x="531" y="230" type="line"/>
      <point x="421" y="101" type="line"/>
    </contour>
    <contour>
      <point x="421" y="82" type="line"/>
      <point x="645" y="82" type="line"/>
      <point x="645" y="102" type="line"/>
      <point x="421" y="102" type="line"/>
    </contour>
    <contour>
      <point x="535" y="210" type="line"/>
      <point x="755" y="210" type="line"/>
      <point x="755" y="230" type="line"/>
      <point x="535" y="230" type="line"/>
    </contour>
    <contour>
      <point x="745" y="60" type="line"/>
      <point x="758" y="77" type="line"/>
      <point x="640" y="102" type="line"/>
      <point x="625" y="85" type="line"/>
    </contour>
    <contour>
      <point x="642" y="82" type="line"/>
      <point x="758" y="215" type="line"/>
      <point x="745" y="230" type="line"/>
      <point x="625" y="91" type="line"/>
    </contour>
    <contour>
      <point x="745" y="50" type="line"/>
      <point x="765" y="50" type="line"/>
      <point x="765" y="230" type="line"/>
      <point x="745" y="230" type="line"/>
    </contour>
    <contour>
      <point x="325" y="550" type="line"/>
      <point x="325" y="530" type="line"/>
      <point x="755" y="530" type="line"/>
      <point x="755" y="550" type="line"/>
    </contour>
    <contour>
      <point x="436" y="409" type="line"/>
      <point x="421" y="394" type="line"/>
      <point x="531" y="360" type="line"/>
      <point x="544" y="378" type="line"/>
    </contour>
    <contour>
      <point x="421" y="413" type="line"/>
      <point x="421" y="393" type="line"/>
      <point x="645" y="393" type="line"/>
      <point x="645" y="413" type="line"/>
    </contour>
    <contour>
      <point x="531" y="380" type="line"/>
      <point x="531" y="360" type="line"/>
      <point x="755" y="360" type="line"/>
      <point x="755" y="380" type="line"/>
    </contour>
    <contour>
      <point x="741" y="543" type="line"/>
      <point x="624" y="410" type="line"/>
      <point x="639" y="396" type="line"/>
      <point x="758" y="530" type="line"/>
    </contour>
    <contour>
      <point x="638" y="412" type="line"/>
      <point x="614" y="399" type="line"/>
      <point x="745" y="366" type="line"/>
      <point x="758" y="382" type="line"/>
    </contour>
    <contour>
      <point x="745" y="550" type="line"/>
      <point x="745" y="360" type="line"/>
      <point x="765" y="360" type="line"/>
      <point x="765" y="550" type="line"/>
    </contour>
    <contour>
      <point x="525" y="342" type="line"/>
      <point x="545" y="342" type="line"/>
      <point x="545" y="378" type="line"/>
      <point x="525" y="378" type="line"/>
    </contour>
    <contour>
      <point x="287" y="368" type="line"/>
      <point x="339" y="410" type="line"/>
      <point x="320" y="420" type="line"/>
      <point x="268" y="378" type="line"/>
    </contour>
    <contour>
      <point x="334" y="409" type="line"/>
      <point x="334" y="540" type="line"/>
      <point x="314" y="536" type="line"/>
      <point x="314" y="415" type="line"/>
    </contour>
    <contour>
      <point x="319" y="97" type="line"/>
      <point x="333" y="111" type="line"/>
      <point x="286" y="226" type="line"/>
      <point x="270" y="216" type="line"/>
    </contour>
    <contour>
      <point x="311" y="59" type="line"/>
      <point x="331" y="68" type="line"/>
      <point x="333" y="93" type="line"/>
      <point x="435" y="225" type="line"/>
      <point x="421" y="239" type="line"/>
      <point x="316" y="103" type="line"/>
    </contour>
    <contour>
      <point x="420" y="218" type="line"/>
      <point x="426" y="238" type="line"/>
      <point x="301" y="255" type="line"/>
      <point x="295" y="235" type="line"/>
    </contour>
    <contour>
      <point x="295" y="240" type="line"/>
      <point x="315" y="240" type="line"/>
      <point x="315" y="365" type="line"/>
      <point x="295" y="365" type="line"/>
    </contour>
    <contour>
      <point x="301" y="350" type="line"/>
      <point x="421" y="320" type="line"/>
      <point x="415" y="342" type="line"/>
      <point x="295" y="372" type="line"/>
    </contour>
    <contour>
      <point x="200" y="408" type="line"/>
      <point x="330" y="408" type="line"/>
      <point x="330" y="426" type="line"/>
      <point x="200" y="426" type="line"/>
    </contour>
    <contour>
      <point x="421" y="324" type="line"/>
      <point x="435" y="338" type="line"/>
      <point x="330" y="426" type="line"/>
      <point x="316" y="412" type="line"/>
    </contour>
    <contour>
      <point x="283" y="209" type="line"/>
      <point x="315" y="240" type="line"/>
      <point x="301" y="254" type="line"/>
      <point x="269" y="223" type="line"/>
    </contour>
    <contour>
      <point x="301" y="351" type="line"/>
      <point x="315" y="365" type="line"/>
      <point x="283" y="386" type="line"/>
      <point x="269" y="372" type="line"/>
    </contour>
    <contour>
      <point x="336" y="58" type="line"/>
      <point x="437" y="84" type="line"/>
      <point x="418" y="100" type="line"/>
      <point x="317" y="69" type="line"/>
    </contour>
  </outline>
</glyph>
<glyph name="emdash" format="2">
  <advance width="661"/>
  <unicode hex="2014"/>
  <outline>
    <contour>
      <point x="15" y="264" type="line"/>
      <point x="640" y="264" type="line"/>
      <point x="640" y="282" type="line"/>
      <point x="15" y="282" type="line"/>
    </contour>
    <contour>
      <point x="29" y="264" type="line"/>
      <point x="107" y="280" type="line"/>
      <point x="91" y="293" type="line"/>
      <point x="15" y="278" type="line"/>
    </contour>
    <contour>
      <point x="632" y="264" type="line"/>
      <point x="646" y="278" type="line"/>
      <point x="569" y="294" type="line"/>
      <point x="554" y="280" type="line"/>
    </contour>
    <contour>
      <point x="15" y="264" type="line"/>
      <point x="35" y="264" type="line"/>
      <point x="35" y="349" type="line"/>
      <point x="15" y="349" type="line"/>
    </contour>
    <contour>
      <point x="91" y="276" type="line"/>
      <point x="574" y="276" type="line"/>
      <point x="574" y="299" type="line"/>
      <point x="91" y="299" type="line"/>
    </contour>
    <contour>
      <point x="626" y="264" type="line"/>
      <point x="646" y="264" type="line"/>
      <point x="646" y="349" type="line"/>
      <point x="626" y="349" type="line"/>
    </contour>
    <contour>
      <point x="92" y="280" type="line"/>
      <point x="107" y="294" type="line"/>
      <point x="29" y="349" type="line"/>
      <point x="15" y="335" type="line"/>
    </contour>
    <contour>
      <point x="18" y="331" type="line"/>
      <point x="640" y="331" type="line"/>
      <point x="640" y="349" type="line"/>
      <point x="18" y="349" type="line"/>
    </contour>
    <contour>
      <point x="569" y="280" type="line"/>
      <point x="645" y="335" type="line"/>
      <point x="631" y="349" type="line"/>
      <point x="554" y="294" type="line"/>
    </contour>
  </outline>
</glyph>
<glyph name="quotedblleft" format="2">
  <advance width="342"/>
  <unicode hex="201C"/>
  <outline>
    <contour>
      <point x="312" y="437" type="line"/>
      <point x="180" y="437" type="line"/>
      <point x="180" y="423" type="line"/>
      <point x="312" y="423" type="line"/>
    </contour>
    <contour>
      <point x="301" y="437" type="line"/>
      <point x="244" y="337" type="line"/>
      <point x="252" y="321" type="line"/>
      <point x="312" y="426" type="line"/>
    </contour>
    <contour>
      <point x="192" y="437" type="line"/>
      <point x="180" y="426" type="line"/>
      <point x="242" y="320" type="line"/>
      <point x="249" y="336" type="line"/>
    </contour>
    <contour>
      <point x="312" y="437" type="line"/>
      <point x="296" y="437" type="line"/>
      <point x="296" y="295" type="line"/>
      <point x="312" y="295" type="line"/>
    </contour>
    <contour>
      <point x="252" y="333" type="line"/>
      <point x="241" y="333" type="line"/>
      <point x="241" y="319" type="line"/>
      <point x="252" y="319" type="line"/>
    </contour>
    <contour>
      <point x="196" y="437" type="line"/>
      <point x="180" y="437" type="line"/>
      <point x="180" y="295" type="line"/>
      <point x="196" y="295" type="line"/>
    </contour>
    <contour>
      <point x="251" y="331" type="line"/>
      <point x="244" y="315" type="line"/>
      <point x="301" y="295" type="line"/>
      <point x="312" y="307" type="line"/>
    </contour>
    <contour>
      <point x="310" y="310" type="line"/>
      <point x="180" y="310" type="line"/>
      <point x="180" y="295" type="line"/>
      <point x="310" y="295" type="line"/>
    </contour>
    <contour>
      <point x="242" y="331" type="line"/>
      <point x="181" y="307" type="line"/>
      <point x="192" y="295" type="line"/>
      <point x="249" y="315" type="line"/>
    </contour>
    <contour>
      <point x="312" y="539" type="line"/>
      <point x="296" y="539" type="line"/>
      <point x="296" y="475" type="line"/>
      <point x="312" y="473" type="line"/>
    </contour>
    <contour>
      <point x="302" y="485" type="line"/>
      <point x="249" y="437" type="line"/>
      <point x="263" y="426" type="line"/>
      <point x="312" y="473" type="line"/>
    </contour>
    <contour>
      <point x="300" y="549" type="line"/>
      <point x="180" y="437" type="line"/>
      <point x="191" y="425" type="line"/>
      <point x="312" y="538" type="line"/>
      <point x="312" y="549" type="line"/>
    </contour>
    <contour>
      <point x="162" y="437" type="line"/>
      <point x="30" y="437" type="line"/>
      <point x="30" y="423" type="line"/>
      <point x="162" y="423" type="line"/>
    </contour>
    <contour>
      <point x="151" y="437" type="line"/>
      <point x="94" y="337" type="line"/>
      <point x="102" y="321" type="line"/>
      <point x="162" y="426" type="line"/>
    </contour>
    <contour>
      <point x="42" y="437" type="line"/>
      <point x="30" y="426" type="line"/>
      <point x="92" y="320" type="line"/>
      <point x="99" y="336" type="line"/>
    </contour>
    <contour>
      <point x="162" y="437" type="line"/>
      <point x="146" y="437" type="line"/>
      <point x="146" y="295" type="line"/>
      <point x="162" y="295" type="line"/>
    </contour>
    <contour>
      <point x="102" y="333" type="line"/>
      <point x="91" y="333" type="line"/>
      <point x="91" y="319" type="line"/>
      <point x="102" y="319" type="line"/>
    </contour>
    <contour>
      <point x="46" y="437" type="line"/>
      <point x="30" y="437" type="line"/>
      <point x="30" y="295" type="line"/>
      <point x="46" y="295" type="line"/>
    </contour>
    <contour>
      <point x="101" y="331" type="line"/>
      <point x="94" y="315" type="line"/>
      <point x="151" y="295" type="line"/>
      <point x="162" y="307" type="line"/>
    </contour>
    <contour>
      <point x="160" y="310" type="line"/>
      <point x="30" y="310" type="line"/>
      <point x="30" y="295" type="line"/>
      <point x="160" y="295" type="line"/>
    </contour>
    <contour>
      <point x="92" y="331" type="line"/>
      <point x="31" y="307" type="line"/>
      <point x="42" y="295" type="line"/>
      <point x="99" y="315" type="line"/>
    </contour>
    <contour>
      <point x="162" y="539" type="line"/>
      <point x="146" y="539" type="line"/>
      <point x="146" y="475" type="line"/>
      <point x="162" y="473" type="line"/>
    </contour>
    <contour>
      <point x="152" y="485" type="line"/>
      <point x="99" y="437" type="line"/>
      <point x="113" y="426" type="line"/>
      <point x="162" y="473" type="line"/>
    </contour>
    <contour>
      <point x="150" y="549" type="line"/>
      <point x="30" y="437" type="line"/>
      <point x="41" y="425" type="line"/>
      <point x="162" y="538" type="line"/>
      <point x="162" y="549" type="line"/>
    </contour>
  </outline>
</glyph>
